<svg xmlns="http://www.w3.org/2000/svg" xmlns:xlink="http://www.w3.org/1999/xlink" width="1920" zoomAndPan="magnify" viewBox="0 0 1440 809.999993" height="1080" preserveAspectRatio="xMidYMid meet" version="1.0"><defs><clipPath id="f2fe79c513"><path d="M 297.390625 761 L 1110 761 L 1110 769.5 L 297.390625 769.5 Z M 297.390625 761 " clip-rule="nonzero"/></clipPath></defs><path fill="#dae4fe" d="M 838.667969 609.632812 C 807.300781 616.179688 774.882812 619.332031 741.929688 620.710938 C 658.289062 624.191406 570.386719 616.820312 490.230469 592.3125 C 383.523438 559.6875 339.035156 429.859375 408.15625 340.457031 C 428.296875 314.421875 454.96875 299.183594 480.816406 279.90625 C 511.238281 257.210938 539.101562 231.074219 560.542969 199.566406 C 579.265625 172.050781 591.601562 140.5625 612.054688 114.21875 C 634.648438 85.121094 668.421875 66.976562 704.546875 61.210938 C 834.21875 40.511719 977.8125 115.332031 1056.304688 216.414062 C 1142.765625 327.769531 1069.011719 479.347656 969.140625 553.222656 C 929.042969 582.878906 884.988281 599.972656 838.667969 609.632812 Z M 838.667969 609.632812 " fill-opacity="1" fill-rule="nonzero"/><path fill="#dae4fe" d="M 347.890625 437.355469 C 344.636719 437.355469 341.878906 434.863281 341.609375 431.566406 C 336.214844 365.847656 368.117188 312.300781 436.433594 272.453125 C 498.363281 236.328125 540.648438 167.582031 541.082031 166.882812 C 542.894531 163.917969 546.765625 162.949219 549.75 164.761719 C 552.71875 166.574219 553.664062 170.445312 551.871094 173.429688 C 550.101562 176.355469 507.550781 245.574219 442.816406 283.347656 C 379.054688 320.539062 349.230469 370.050781 354.214844 430.539062 C 354.503906 434.019531 351.910156 437.046875 348.449219 437.332031 C 348.242188 437.355469 348.078125 437.355469 347.890625 437.355469 Z M 347.890625 437.355469 " fill-opacity="1" fill-rule="nonzero"/><path fill="#4b6fdd" d="M 540.195312 736.515625 C 540.195312 736.515625 542.6875 755.050781 545.136719 757.851562 C 553.355469 767.304688 571.871094 764.113281 581.058594 758.410156 C 586.863281 754.804688 581.46875 742.34375 581.46875 742.34375 Z M 540.195312 736.515625 " fill-opacity="1" fill-rule="nonzero"/><path fill="#192351" d="M 569.398438 717.488281 C 569.398438 717.488281 575.125 730.132812 576.03125 731.46875 C 576.957031 732.808594 592.550781 751.941406 571.828125 756.164062 C 551.109375 760.386719 546.433594 757.421875 541.535156 743.414062 C 538.710938 735.320312 541.78125 719.609375 541.78125 719.609375 C 541.78125 719.609375 542.914062 724.28125 550.039062 724.386719 C 562.542969 724.550781 568.019531 722.015625 569.398438 717.488281 Z M 569.398438 717.488281 " fill-opacity="1" fill-rule="nonzero"/><path fill="#ffffff" d="M 567.070312 726.855469 L 551.253906 729.082031 C 550.65625 729.164062 550.121094 728.75 550.039062 728.15625 C 549.957031 727.558594 550.367188 727.023438 550.964844 726.941406 L 566.785156 724.714844 C 567.382812 724.632812 567.917969 725.042969 568 725.640625 C 568.082031 726.238281 567.667969 726.773438 567.070312 726.855469 Z M 567.070312 726.855469 " fill-opacity="1" fill-rule="nonzero"/><path fill="#ffffff" d="M 568.0625 731.140625 L 552.242188 733.363281 C 551.644531 733.449219 551.109375 733.035156 551.027344 732.4375 C 550.945312 731.839844 551.359375 731.304688 551.953125 731.222656 L 567.773438 729 C 568.371094 728.917969 568.90625 729.328125 568.988281 729.925781 C 569.070312 730.503906 568.65625 731.058594 568.0625 731.140625 Z M 568.0625 731.140625 " fill-opacity="1" fill-rule="nonzero"/><path fill="#ffffff" d="M 569.152344 736.167969 L 553.335938 738.390625 C 552.738281 738.472656 552.203125 738.0625 552.121094 737.464844 C 552.039062 736.867188 552.449219 736.332031 553.046875 736.25 L 568.863281 734.023438 C 569.460938 733.941406 569.996094 734.355469 570.078125 734.949219 C 570.160156 735.546875 569.75 736.082031 569.152344 736.167969 Z M 569.152344 736.167969 " fill-opacity="1" fill-rule="nonzero"/><path fill="#192351" d="M 539.183594 521.238281 C 530.535156 484.765625 527.898438 447.609375 527.898438 447.609375 L 493.957031 421.085938 L 419.875 448.144531 C 417.402344 481.199219 419.277344 629.320312 419.175781 649.6875 C 419.070312 670.054688 418.949219 718.289062 418.949219 718.289062 C 418.949219 718.289062 443.394531 723.726562 453.15625 715.488281 C 453.15625 715.488281 458.078125 679.941406 459.273438 663.320312 C 463.3125 606.644531 473.753906 511.0625 473.753906 511.0625 C 473.753906 511.0625 489.671875 556.414062 503.308594 592.289062 L 535.417969 713.738281 C 565.589844 716.664062 574.15625 708.898438 574.15625 708.898438 C 574.15625 708.898438 545.015625 545.785156 539.183594 521.238281 Z M 539.183594 521.238281 " fill-opacity="1" fill-rule="nonzero"/><path fill="#dae4fe" d="M 473.753906 511.558594 C 473.527344 511.558594 473.320312 511.394531 473.277344 511.167969 L 468.851562 488.511719 C 468.808594 488.246094 468.972656 487.996094 469.222656 487.957031 C 469.488281 487.914062 469.738281 488.078125 469.777344 488.328125 L 474.207031 510.980469 C 474.246094 511.25 474.082031 511.496094 473.835938 511.539062 C 473.816406 511.558594 473.792969 511.558594 473.753906 511.558594 Z M 473.753906 511.558594 " fill-opacity="1" fill-rule="nonzero"/><path fill="#dae4fe" d="M 471.550781 500.230469 C 471.488281 500.230469 471.425781 500.210938 471.363281 500.191406 C 471.011719 500.046875 462.960938 496.710938 459.542969 493.886719 C 459.335938 493.722656 459.316406 493.414062 459.480469 493.207031 C 459.644531 493.003906 459.953125 492.980469 460.160156 493.144531 C 463.476562 495.863281 471.652344 499.261719 471.734375 499.304688 C 471.980469 499.40625 472.085938 499.675781 472.003906 499.921875 C 471.917969 500.128906 471.734375 500.230469 471.550781 500.230469 Z M 471.550781 500.230469 " fill-opacity="1" fill-rule="nonzero"/><path fill="#4b6fdd" d="M 379.238281 752.1875 C 379.238281 752.1875 377.304688 763.332031 390.421875 764.667969 C 403.542969 766.007812 412.75 765.289062 419.523438 763.824219 C 426.300781 762.34375 430.109375 760.222656 437.238281 760.816406 C 444.363281 761.414062 451.652344 764.382812 455.238281 760.757812 C 458.183594 757.789062 455.484375 749.675781 455.484375 749.675781 L 416.207031 749.863281 Z M 379.238281 752.1875 " fill-opacity="1" fill-rule="nonzero"/><path fill="#192351" d="M 420.78125 728.238281 C 420.78125 728.238281 405.210938 739.335938 397.546875 743.128906 C 389.886719 746.894531 379.9375 744.28125 379.257812 752.1875 C 378.578125 760.097656 400.207031 758.367188 412.871094 757.195312 C 425.539062 756.019531 434.414062 751.078125 441.046875 753.054688 C 447.679688 755.011719 455.050781 751.859375 455.527344 749.675781 C 456 747.492188 452.808594 728.257812 451.117188 726.425781 C 451.117188 726.425781 450.191406 730.214844 437.710938 730.542969 C 425.230469 730.851562 420.78125 728.238281 420.78125 728.238281 Z M 420.78125 728.238281 " fill-opacity="1" fill-rule="nonzero"/><path fill="#ffffff" d="M 406.261719 744.300781 L 406.074219 744.425781 C 405.703125 744.652344 405.25 744.527344 405.023438 744.15625 L 402.65625 740.140625 C 402.449219 739.769531 402.554688 739.296875 402.925781 739.089844 L 403.109375 738.96875 C 403.480469 738.742188 403.933594 738.863281 404.160156 739.234375 L 406.527344 743.25 C 406.753906 743.601562 406.632812 744.074219 406.261719 744.300781 Z M 406.261719 744.300781 " fill-opacity="1" fill-rule="nonzero"/><path fill="#ffffff" d="M 409.804688 741.789062 L 409.617188 741.910156 C 409.246094 742.136719 408.792969 742.015625 408.566406 741.644531 L 406.199219 737.628906 C 405.992188 737.257812 406.09375 736.785156 406.464844 736.578125 L 406.652344 736.453125 C 407.023438 736.226562 407.476562 736.351562 407.703125 736.722656 L 410.070312 740.738281 C 410.277344 741.109375 410.152344 741.582031 409.804688 741.789062 Z M 409.804688 741.789062 " fill-opacity="1" fill-rule="nonzero"/><path fill="#ffffff" d="M 413.921875 739.132812 L 413.738281 739.253906 C 413.367188 739.480469 412.914062 739.359375 412.6875 738.988281 L 410.316406 734.972656 C 410.113281 734.601562 410.214844 734.128906 410.585938 733.921875 L 410.769531 733.796875 C 411.140625 733.570312 411.59375 733.695312 411.820312 734.066406 L 414.191406 738.082031 C 414.394531 738.453125 414.292969 738.925781 413.921875 739.132812 Z M 413.921875 739.132812 " fill-opacity="1" fill-rule="nonzero"/><path fill="#ffffff" d="M 418 736.515625 L 417.816406 736.640625 C 417.445312 736.867188 416.992188 736.742188 416.765625 736.371094 L 414.394531 732.355469 C 414.191406 731.984375 414.292969 731.511719 414.664062 731.304688 L 414.847656 731.183594 C 415.21875 730.957031 415.671875 731.078125 415.898438 731.449219 L 418.269531 735.464844 C 418.472656 735.816406 418.351562 736.289062 418 736.515625 Z M 418 736.515625 " fill-opacity="1" fill-rule="nonzero"/><path fill="#c47249" d="M 453.628906 368.300781 C 429.738281 372.046875 388.796875 382.058594 388.796875 382.058594 C 390.402344 357.609375 393.347656 338.25 396.972656 322.949219 C 409.863281 268.457031 435.09375 265.078125 435.09375 265.078125 L 453.773438 274.550781 L 475.421875 283.738281 C 475.421875 283.738281 477.523438 364.550781 453.628906 368.300781 Z M 453.628906 368.300781 " fill-opacity="1" fill-rule="nonzero"/><path fill="#c47249" d="M 426.816406 373.222656 C 426.816406 373.222656 437.359375 402.796875 416.722656 405.925781 C 409.183594 407.082031 373.328125 378.101562 373.328125 378.101562 L 397.035156 363.128906 Z M 426.816406 373.222656 " fill-opacity="1" fill-rule="nonzero"/><path fill="#4b6fdd" d="M 453.773438 274.550781 C 452.210938 294.980469 448.132812 321.097656 437.546875 323.363281 C 424.40625 326.164062 405.582031 324.144531 396.953125 322.949219 C 409.84375 268.457031 432.480469 264.644531 432.480469 264.644531 Z M 453.773438 274.550781 " fill-opacity="1" fill-rule="nonzero"/><path fill="#192351" d="M 423.027344 324.988281 C 423.027344 324.988281 423.003906 324.988281 423.027344 324.988281 C 422.859375 324.988281 422.757812 324.867188 422.757812 324.722656 C 422.757812 324.554688 423.765625 309.171875 425.847656 300.851562 C 425.886719 300.707031 426.03125 300.625 426.15625 300.667969 C 426.300781 300.707031 426.382812 300.851562 426.339844 300.976562 C 424.261719 309.273438 423.273438 324.597656 423.273438 324.761719 C 423.273438 324.867188 423.167969 324.988281 423.027344 324.988281 Z M 423.027344 324.988281 " fill-opacity="1" fill-rule="nonzero"/><path fill="#c47249" d="M 442.179688 280.460938 C 442.261719 280.234375 462.589844 301.777344 475.855469 297.433594 C 490.683594 292.550781 497.3125 262.339844 497.3125 262.339844 L 494.964844 232.003906 L 494.945312 231.507812 L 494.90625 229.695312 L 491.980469 230.765625 L 480.34375 235.007812 L 475.667969 236.71875 L 463.722656 241.066406 C 463.722656 241.066406 463.515625 248.910156 462.035156 255.273438 C 461.867188 255.953125 461.726562 256.574219 461.558594 257.191406 C 461.230469 258.242188 460.734375 259.230469 460.179688 260.054688 C 458.902344 262.050781 457.316406 263.328125 457.316406 263.347656 C 454.308594 269.671875 442.28125 280.460938 442.179688 280.460938 Z M 442.179688 280.460938 " fill-opacity="1" fill-rule="nonzero"/><path fill="#c47249" d="M 446.691406 223.066406 C 450.4375 239.539062 457.070312 256.035156 473.03125 253.585938 C 484.195312 251.855469 494.945312 236.390625 497.355469 222.199219 C 498.589844 214.867188 499.746094 208.484375 499.722656 203.664062 C 499.703125 199.855469 499.519531 197.464844 499.519531 197.464844 L 496.777344 189.1875 L 495.152344 184.347656 C 495.152344 184.347656 491.566406 181.441406 487.550781 178.167969 C 482.546875 174.070312 474.84375 180 474.722656 179.710938 C 474.515625 179.28125 452.085938 176.148438 445.042969 185.128906 C 445.023438 185.148438 445 185.171875 445 185.191406 C 444.363281 186.015625 443.867188 186.839844 443.558594 187.683594 C 443.292969 188.382812 443.167969 189.105469 443.167969 189.824219 C 443.167969 191.203125 443.230469 193.285156 443.3125 195.898438 C 443.375 196.992188 443.414062 198.1875 443.496094 199.460938 C 443.621094 201.605469 443.804688 203.953125 444.054688 206.425781 C 444.546875 211.59375 445.371094 217.359375 446.691406 223.066406 Z M 446.691406 223.066406 " fill-opacity="1" fill-rule="nonzero"/><path fill="#192351" d="M 448.625 230.621094 C 452.066406 245.679688 458.472656 255.046875 473.195312 253.585938 C 487.285156 252.207031 494.699219 237.152344 496.902344 224.175781 C 495.707031 221.109375 494.472656 213.507812 494.472656 213.507812 C 494.472656 213.507812 490.867188 207.90625 490.910156 208.113281 C 491.382812 210.441406 491.21875 226.339844 484.378906 228.316406 C 476.945312 230.480469 474.289062 232.394531 471.445312 232.351562 C 468.605469 232.3125 467.757812 231.324219 465.265625 231.941406 C 462.753906 232.558594 461.046875 233.878906 457.667969 233.300781 C 454.496094 232.785156 450.996094 235.03125 448.625 230.621094 Z M 448.625 230.621094 " fill-opacity="1" fill-rule="nonzero"/><path fill="#192351" d="M 500.464844 203.480469 C 500.464844 203.480469 503.144531 167.398438 482.113281 167.398438 C 482.113281 167.398438 465.742188 159.734375 447.636719 170.175781 C 435.734375 177.035156 440.039062 191.429688 441.230469 196.414062 C 441.972656 199.546875 443.25 202.140625 443.664062 201.976562 C 444.816406 201.5 444.9375 198.371094 449.160156 199.339844 C 466.277344 203.253906 477.007812 190.421875 481.804688 193.222656 C 486.605469 196.023438 496.921875 224.175781 496.921875 224.175781 C 496.921875 224.175781 497.789062 210.871094 500.464844 203.480469 Z M 500.464844 203.480469 " fill-opacity="1" fill-rule="nonzero"/><path fill="#c47249" d="M 496.304688 206.609375 C 496.304688 206.609375 505.777344 199.8125 505.902344 209.65625 C 506.027344 219.5 496.882812 224.199219 496.882812 224.199219 Z M 496.304688 206.609375 " fill-opacity="1" fill-rule="nonzero"/><path fill="#192351" d="M 498.839844 209.65625 C 498.839844 209.65625 506.375 207 499.148438 217.914062 Z M 498.839844 209.65625 " fill-opacity="1" fill-rule="nonzero"/><path fill="#192351" d="M 456.917969 218.226562 C 457.019531 218.566406 457.074219 218.90625 457.085938 219.246094 C 457.101562 219.582031 457.074219 219.890625 457 220.171875 C 456.929688 220.453125 456.820312 220.6875 456.671875 220.871094 C 456.527344 221.054688 456.351562 221.175781 456.152344 221.230469 C 455.953125 221.289062 455.742188 221.277344 455.523438 221.203125 C 455.300781 221.125 455.082031 220.984375 454.875 220.785156 C 454.664062 220.582031 454.472656 220.335938 454.308594 220.042969 C 454.140625 219.75 454.007812 219.429688 453.910156 219.089844 C 453.8125 218.75 453.757812 218.410156 453.742188 218.074219 C 453.726562 217.734375 453.757812 217.425781 453.828125 217.144531 C 453.902344 216.863281 454.011719 216.628906 454.15625 216.445312 C 454.304688 216.261719 454.476562 216.140625 454.675781 216.085938 C 454.875 216.027344 455.085938 216.039062 455.308594 216.117188 C 455.53125 216.191406 455.746094 216.332031 455.957031 216.535156 C 456.167969 216.734375 456.355469 216.980469 456.523438 217.273438 C 456.6875 217.566406 456.820312 217.886719 456.917969 218.226562 Z M 456.917969 218.226562 " fill-opacity="1" fill-rule="nonzero"/><path fill="#192351" d="M 475.105469 215.238281 C 475.203125 215.578125 475.257812 215.917969 475.273438 216.253906 C 475.285156 216.59375 475.257812 216.902344 475.1875 217.183594 C 475.113281 217.464844 475.003906 217.699219 474.859375 217.882812 C 474.710938 218.066406 474.539062 218.1875 474.339844 218.242188 C 474.140625 218.300781 473.929688 218.289062 473.707031 218.210938 C 473.484375 218.136719 473.269531 217.996094 473.058594 217.796875 C 472.847656 217.59375 472.660156 217.347656 472.492188 217.054688 C 472.324219 216.761719 472.195312 216.441406 472.097656 216.101562 C 471.996094 215.761719 471.941406 215.421875 471.925781 215.082031 C 471.914062 214.746094 471.941406 214.4375 472.015625 214.15625 C 472.085938 213.875 472.195312 213.640625 472.34375 213.457031 C 472.488281 213.273438 472.664062 213.152344 472.863281 213.097656 C 473.0625 213.039062 473.273438 213.050781 473.492188 213.128906 C 473.714844 213.203125 473.929688 213.34375 474.140625 213.542969 C 474.351562 213.746094 474.539062 213.992188 474.707031 214.285156 C 474.875 214.578125 475.007812 214.898438 475.105469 215.238281 Z M 475.105469 215.238281 " fill-opacity="1" fill-rule="nonzero"/><path fill="#192351" d="M 457.667969 213.527344 C 457.667969 213.527344 452.949219 210.460938 449.222656 212.765625 Z M 457.667969 213.527344 " fill-opacity="1" fill-rule="nonzero"/><path fill="#192351" d="M 479.394531 208.257812 C 479.023438 208.234375 473.195312 207.597656 470.003906 211.53125 Z M 479.394531 208.257812 " fill-opacity="1" fill-rule="nonzero"/><path fill="#192351" d="M 464.503906 226.152344 C 463.351562 226.152344 462.835938 225.617188 462.609375 225.207031 C 461.929688 223.992188 462.671875 222.097656 463.742188 221.273438 C 463.867188 221.167969 464.03125 221.210938 464.132812 221.335938 C 464.21875 221.457031 464.195312 221.621094 464.074219 221.726562 C 463.105469 222.46875 462.609375 224.074219 463.085938 224.9375 C 463.539062 225.761719 464.792969 225.824219 466.605469 225.125 C 466.75 225.0625 466.914062 225.144531 466.957031 225.289062 C 467.019531 225.433594 466.9375 225.597656 466.792969 225.640625 C 465.84375 226.007812 465.101562 226.152344 464.503906 226.152344 Z M 464.503906 226.152344 " fill-opacity="1" fill-rule="nonzero"/><path fill="#ffffff" d="M 462.136719 240.363281 C 462.136719 240.363281 462.363281 240.753906 462.878906 241.230469 C 463.765625 242.09375 465.492188 243.269531 468.109375 242.960938 C 470.683594 242.648438 472.3125 240.980469 473.15625 239.828125 C 473.609375 239.167969 473.835938 238.695312 473.835938 238.695312 Z M 462.136719 240.363281 " fill-opacity="1" fill-rule="nonzero"/><path fill="#4b6fdd" d="M 543.902344 276.589844 C 528.597656 305.691406 525.984375 401.664062 529.710938 452.429688 C 496.121094 460.359375 447.84375 464.292969 419.234375 456.382812 C 423.375 402.15625 416.722656 312.671875 432.480469 264.644531 C 432.480469 264.644531 450.417969 259.476562 462.199219 259.003906 C 452.269531 272.453125 489.488281 276.097656 497.355469 259.003906 C 497.355469 259.003906 535.292969 266.890625 543.902344 276.589844 Z M 543.902344 276.589844 " fill-opacity="1" fill-rule="nonzero"/><path fill="#192351" d="M 423.027344 324.988281 C 423.027344 324.988281 423.003906 324.988281 423.027344 324.988281 C 422.859375 324.988281 422.757812 324.867188 422.757812 324.722656 C 422.757812 324.554688 423.765625 309.171875 425.847656 300.851562 C 425.886719 300.707031 426.03125 300.625 426.15625 300.667969 C 426.300781 300.707031 426.382812 300.851562 426.339844 300.976562 C 424.261719 309.273438 423.273438 324.597656 423.273438 324.761719 C 423.273438 324.867188 423.167969 324.988281 423.027344 324.988281 Z M 423.027344 324.988281 " fill-opacity="1" fill-rule="nonzero"/><path fill="#c47249" d="M 592.632812 380.699219 C 597.328125 399.417969 581.015625 407.183594 545.796875 394.042969 C 529.15625 387.84375 517.148438 385.660156 513.234375 382.140625 L 515.398438 362.820312 C 518.320312 363.707031 536.695312 364.160156 553.210938 366.324219 L 538.9375 334.75 C 542.832031 334.441406 557.804688 330.921875 570.820312 318.851562 C 582.785156 344.964844 588.59375 364.632812 592.632812 380.699219 Z M 592.632812 380.699219 " fill-opacity="1" fill-rule="nonzero"/><path fill="#4b6fdd" d="M 541.863281 274.777344 C 541.863281 274.777344 552.695312 280.195312 562.253906 296.421875 C 570.902344 311.128906 579.613281 329.292969 577.824219 331.375 C 566.804688 344.308594 541.367188 345.832031 541.367188 345.832031 L 529.8125 324.0625 Z M 541.863281 274.777344 " fill-opacity="1" fill-rule="nonzero"/><path fill="#192351" d="M 585.359375 376.414062 C 585.277344 376.414062 585.195312 376.375 585.15625 376.3125 C 577.535156 365.789062 553.4375 366.550781 553.210938 366.570312 C 553.066406 366.570312 552.964844 366.46875 552.945312 366.324219 C 552.945312 366.179688 553.046875 366.054688 553.191406 366.054688 C 553.253906 366.054688 559.390625 365.847656 566.414062 366.941406 C 572.921875 367.96875 581.507812 370.378906 585.585938 376.003906 C 585.671875 376.125 585.648438 376.289062 585.527344 376.371094 C 585.484375 376.394531 585.421875 376.414062 585.359375 376.414062 Z M 585.359375 376.414062 " fill-opacity="1" fill-rule="nonzero"/><path fill="#c47249" d="M 491.300781 383.191406 C 493.464844 381.769531 496.097656 381.210938 505.058594 382.511719 C 510.453125 383.292969 519.085938 381.316406 521.433594 380.800781 L 520.566406 364.179688 C 517.085938 363.273438 511.421875 359.546875 507.199219 357.550781 C 501.90625 355.058594 496.097656 350.792969 491.652344 352.316406 C 484.089844 354.871094 475.113281 359.339844 476.222656 362.164062 C 477.378906 364.984375 486.273438 362.203125 486.273438 362.203125 C 486.273438 362.203125 481.703125 364.714844 482.28125 367.765625 C 482.855469 370.8125 486.871094 371.820312 486.871094 371.820312 C 484.710938 374.992188 488.601562 377.9375 488.601562 377.9375 C 486.832031 380.800781 489.570312 384.300781 491.300781 383.191406 Z M 491.300781 383.191406 " fill-opacity="1" fill-rule="nonzero"/><path fill="#192351" d="M 488.621094 378.207031 C 488.539062 378.207031 488.480469 378.164062 488.417969 378.101562 C 488.335938 378 488.335938 377.835938 488.457031 377.730469 C 488.601562 377.628906 491.835938 374.953125 496.921875 374.644531 C 496.921875 374.644531 496.921875 374.644531 496.945312 374.644531 C 497.085938 374.644531 497.191406 374.746094 497.210938 374.890625 C 497.210938 375.035156 497.109375 375.15625 496.964844 375.15625 C 492.0625 375.46875 488.828125 378.101562 488.808594 378.125 C 488.746094 378.183594 488.683594 378.207031 488.621094 378.207031 Z M 488.621094 378.207031 " fill-opacity="1" fill-rule="nonzero"/><path fill="#192351" d="M 486.894531 372.089844 C 486.808594 372.089844 486.75 372.070312 486.707031 372.007812 C 486.605469 371.902344 486.625 371.738281 486.726562 371.636719 C 486.894531 371.492188 490.949219 367.949219 495.75 367.167969 C 495.894531 367.125 496.015625 367.230469 496.058594 367.375 C 496.078125 367.515625 495.976562 367.640625 495.851562 367.683594 C 491.199219 368.445312 487.121094 372.007812 487.078125 372.027344 C 487.015625 372.070312 486.953125 372.089844 486.894531 372.089844 Z M 486.894531 372.089844 " fill-opacity="1" fill-rule="nonzero"/><path fill="#192351" d="M 486.296875 362.472656 C 486.214844 362.472656 486.109375 362.429688 486.070312 362.347656 C 486.007812 362.222656 486.046875 362.058594 486.171875 361.996094 C 486.214844 361.976562 490.394531 359.648438 495.398438 359.648438 C 495.5625 359.648438 495.75 359.730469 495.726562 359.917969 C 495.726562 360.0625 495.605469 360.183594 495.460938 360.183594 C 495.441406 360.183594 495.398438 360.183594 495.378906 360.183594 C 490.519531 360.183594 486.460938 362.429688 486.417969 362.449219 C 486.378906 362.449219 486.335938 362.472656 486.296875 362.472656 Z M 486.296875 362.472656 " fill-opacity="1" fill-rule="nonzero"/><path fill="#192351" d="M 507.46875 384.921875 L 434.972656 384.921875 L 434.972656 379.03125 L 502.296875 379.03125 C 505.140625 379.03125 507.449219 381.335938 507.449219 384.179688 L 507.449219 384.921875 Z M 507.46875 384.921875 " fill-opacity="1" fill-rule="nonzero"/><path fill="#192351" d="M 359.734375 384.921875 L 481.0625 384.921875 L 468.851562 306.578125 L 347.519531 306.578125 Z M 359.734375 384.921875 " fill-opacity="1" fill-rule="nonzero"/><path fill="#ffffff" d="M 420.816406 347.339844 C 420.925781 347.933594 420.980469 348.53125 420.980469 349.132812 C 420.980469 349.738281 420.925781 350.332031 420.816406 350.921875 C 420.707031 351.507812 420.546875 352.078125 420.332031 352.625 C 420.117188 353.175781 419.855469 353.699219 419.542969 354.1875 C 419.234375 354.679688 418.882812 355.132812 418.484375 355.546875 C 418.089844 355.960938 417.660156 356.328125 417.195312 356.648438 C 416.730469 356.96875 416.242188 357.234375 415.722656 357.449219 C 415.207031 357.664062 414.675781 357.820312 414.128906 357.921875 C 413.578125 358.023438 413.027344 358.0625 412.46875 358.046875 C 411.910156 358.027344 411.355469 357.953125 410.808594 357.816406 C 410.257812 357.683594 409.726562 357.492188 409.210938 357.246094 C 408.695312 357 408.203125 356.699219 407.742188 356.351562 C 407.277344 356 406.847656 355.605469 406.449219 355.167969 C 406.054688 354.730469 405.703125 354.253906 405.394531 353.742188 C 405.082031 353.234375 404.820312 352.695312 404.605469 352.132812 C 404.394531 351.570312 404.230469 350.988281 404.125 350.394531 C 404.015625 349.800781 403.960938 349.203125 403.960938 348.597656 C 403.960938 347.996094 404.015625 347.402344 404.125 346.8125 C 404.234375 346.226562 404.394531 345.65625 404.609375 345.105469 C 404.824219 344.554688 405.085938 344.035156 405.394531 343.542969 C 405.707031 343.054688 406.058594 342.601562 406.453125 342.1875 C 406.847656 341.773438 407.277344 341.40625 407.742188 341.085938 C 408.207031 340.765625 408.699219 340.496094 409.214844 340.285156 C 409.730469 340.070312 410.265625 339.910156 410.8125 339.8125 C 411.359375 339.710938 411.914062 339.667969 412.472656 339.6875 C 413.03125 339.703125 413.585938 339.78125 414.132812 339.914062 C 414.679688 340.050781 415.210938 340.242188 415.726562 340.488281 C 416.246094 340.734375 416.734375 341.035156 417.199219 341.382812 C 417.664062 341.730469 418.09375 342.125 418.488281 342.566406 C 418.882812 343.003906 419.238281 343.476562 419.546875 343.988281 C 419.855469 344.5 420.117188 345.039062 420.332031 345.601562 C 420.546875 346.164062 420.707031 346.742188 420.816406 347.339844 Z M 420.816406 347.339844 " fill-opacity="1" fill-rule="nonzero"/><path fill="#c47249" d="M 380.699219 384.859375 C 380.699219 384.859375 381.710938 384.382812 381.238281 379.832031 C 380.761719 375.300781 382.164062 370.855469 386.53125 371.347656 C 386.53125 371.347656 390.257812 366.835938 394.148438 371.308594 C 394.148438 371.308594 398.660156 369.269531 401.625 373.015625 C 401.625 373.015625 405.355469 370.9375 407.226562 373.695312 C 409.101562 376.457031 410.03125 384.445312 407.25 386.421875 C 404.449219 388.402344 397.300781 389.492188 390.75 389.390625 C 384.203125 389.285156 380.699219 384.859375 380.699219 384.859375 Z M 380.699219 384.859375 " fill-opacity="1" fill-rule="nonzero"/><path fill="#192351" d="M 386.53125 383.929688 C 386.488281 383.929688 386.449219 383.910156 386.40625 383.890625 C 386.28125 383.808594 386.242188 383.664062 386.304688 383.539062 C 388.898438 379.089844 386.304688 371.492188 386.28125 371.429688 C 386.242188 371.285156 386.304688 371.140625 386.449219 371.101562 C 386.589844 371.058594 386.734375 371.121094 386.777344 371.265625 C 386.878906 371.59375 389.476562 379.175781 386.777344 383.808594 C 386.714844 383.890625 386.613281 383.929688 386.53125 383.929688 Z M 386.53125 383.929688 " fill-opacity="1" fill-rule="nonzero"/><path fill="#192351" d="M 394.148438 384.324219 C 394.109375 384.324219 394.089844 384.324219 394.046875 384.300781 C 393.921875 384.242188 393.863281 384.097656 393.902344 383.953125 C 396.167969 378.761719 393.902344 371.449219 393.882812 371.367188 C 393.839844 371.222656 393.921875 371.082031 394.046875 371.039062 C 394.191406 370.996094 394.335938 371.082031 394.375 371.203125 C 394.480469 371.511719 396.726562 378.804688 394.375 384.15625 C 394.355469 384.261719 394.253906 384.324219 394.148438 384.324219 Z M 394.148438 384.324219 " fill-opacity="1" fill-rule="nonzero"/><path fill="#192351" d="M 400.699219 385.003906 C 400.660156 385.003906 400.597656 384.980469 400.554688 384.960938 C 400.433594 384.878906 400.410156 384.714844 400.472656 384.609375 C 403.191406 380.472656 401.378906 373.140625 401.359375 373.078125 C 401.316406 372.933594 401.398438 372.789062 401.542969 372.769531 C 401.6875 372.726562 401.832031 372.808594 401.851562 372.953125 C 401.933594 373.261719 403.746094 380.574219 400.90625 384.898438 C 400.863281 384.960938 400.78125 385.003906 400.699219 385.003906 Z M 400.699219 385.003906 " fill-opacity="1" fill-rule="nonzero"/><path fill="#192351" d="M 991.734375 546.753906 L 624.925781 546.753906 C 618.046875 546.753906 613.496094 540.78125 614.773438 533.410156 L 677.300781 168.136719 C 678.433594 161.527344 684.695312 155.65625 691.304688 154.976562 L 1041.949219 119.800781 C 1049.835938 119.019531 1055.582031 124.1875 1054.738281 131.398438 L 1008.480469 532.03125 C 1007.53125 540.164062 1000.015625 546.753906 991.734375 546.753906 Z M 991.734375 546.753906 " fill-opacity="1" fill-rule="nonzero"/><path fill="#ffffff" d="M 982.035156 537.074219 L 615.226562 537.074219 C 608.347656 537.074219 603.792969 531.101562 605.070312 523.730469 L 667.601562 158.457031 C 668.734375 151.847656 674.992188 145.976562 681.605469 145.296875 L 1032.246094 110.121094 C 1040.136719 109.339844 1045.882812 114.507812 1045.039062 121.71875 L 998.78125 522.351562 C 997.851562 530.484375 990.335938 537.074219 982.035156 537.074219 Z M 982.035156 537.074219 " fill-opacity="1" fill-rule="nonzero"/><path fill="#dae4fe" d="M 978.617188 516.746094 L 623.238281 518.476562 L 677.425781 197.320312 L 1019.972656 167.480469 Z M 978.617188 516.746094 " fill-opacity="1" fill-rule="nonzero"/><path fill="#4b6fdd" d="M 695.074219 168.941406 C 694.558594 172.03125 691.636719 174.75 688.546875 175.039062 C 685.457031 175.324219 683.398438 173.058594 683.910156 169.992188 C 684.425781 166.921875 687.332031 164.203125 690.421875 163.894531 C 693.488281 163.605469 695.570312 165.851562 695.074219 168.941406 Z M 695.074219 168.941406 " fill-opacity="1" fill-rule="nonzero"/><path fill="#4b6fdd" d="M 734.164062 165.253906 C 733.671875 168.363281 730.707031 171.125 727.554688 171.414062 C 724.402344 171.699219 722.28125 169.414062 722.777344 166.324219 C 723.269531 163.238281 726.234375 160.476562 729.367188 160.167969 C 732.519531 159.878906 734.660156 162.144531 734.164062 165.253906 Z M 734.164062 165.253906 " fill-opacity="1" fill-rule="nonzero"/><path fill="#4b6fdd" d="M 714.515625 167.109375 C 714.003906 170.199219 711.078125 172.957031 707.945312 173.246094 C 704.835938 173.535156 702.738281 171.269531 703.25 168.179688 C 703.765625 165.089844 706.691406 162.351562 709.800781 162.0625 C 712.910156 161.753906 715.03125 164.019531 714.515625 167.109375 Z M 714.515625 167.109375 " fill-opacity="1" fill-rule="nonzero"/><path fill="#4b6fdd" d="M 916.707031 453.171875 L 693.632812 457.683594 L 699.378906 421.765625 L 921.566406 415.234375 Z M 916.707031 453.171875 " fill-opacity="1" fill-rule="nonzero"/><path fill="#ffffff" d="M 780.527344 426.914062 L 778.980469 441.554688 L 784.5625 441.554688 L 784.152344 445.511719 L 773.585938 445.511719 L 775.542969 426.914062 Z M 780.527344 426.914062 " fill-opacity="1" fill-rule="nonzero"/><path fill="#ffffff" d="M 794.675781 445.695312 C 789.589844 445.695312 785.882812 441.742188 786.457031 436.140625 C 787.054688 430.539062 791.585938 426.625 796.671875 426.625 C 801.78125 426.625 805.449219 430.558594 804.871094 436.140625 C 804.273438 441.742188 799.761719 445.695312 794.675781 445.695312 Z M 795.191406 440.898438 C 797.765625 440.898438 799.515625 439.023438 799.804688 436.160156 C 800.113281 433.234375 798.753906 431.382812 796.179688 431.382812 C 793.585938 431.382812 791.855469 433.234375 791.546875 436.160156 C 791.257812 439.023438 792.574219 440.898438 795.191406 440.898438 Z M 795.191406 440.898438 " fill-opacity="1" fill-rule="nonzero"/><path fill="#ffffff" d="M 824.273438 433.03125 L 818.898438 433.03125 C 818.445312 432.0625 817.476562 431.503906 816.09375 431.503906 C 813.582031 431.503906 811.851562 433.316406 811.5625 436.179688 C 811.234375 439.371094 812.636719 441.082031 815.582031 441.082031 C 817.3125 441.082031 818.671875 440.238281 819.578125 438.632812 L 814.570312 438.632812 L 814.960938 434.902344 L 824.273438 434.902344 L 823.738281 439.910156 C 822.378906 442.625 819.289062 445.632812 814.613281 445.632812 C 809.113281 445.632812 805.902344 441.71875 806.496094 436.160156 C 807.074219 430.621094 811.070312 426.707031 816.570312 426.707031 C 821.121094 426.726562 823.964844 429.15625 824.273438 433.03125 Z M 824.273438 433.03125 " fill-opacity="1" fill-rule="nonzero"/><path fill="#ffffff" d="M 827.363281 426.914062 L 832.34375 426.914062 L 830.390625 445.511719 L 825.40625 445.511719 Z M 827.363281 426.914062 " fill-opacity="1" fill-rule="nonzero"/><path fill="#ffffff" d="M 851.828125 426.914062 L 849.871094 445.511719 L 844.886719 445.511719 L 839.328125 435.109375 L 838.234375 445.511719 L 833.25 445.511719 L 835.207031 426.914062 L 840.191406 426.914062 L 845.734375 437.4375 L 846.84375 426.914062 Z M 851.828125 426.914062 " fill-opacity="1" fill-rule="nonzero"/><path fill="#ffffff" d="M 874.339844 249.527344 C 871.1875 272.699219 849.234375 292.757812 825.550781 294.179688 C 802.132812 295.578125 786.109375 278.195312 789.464844 255.480469 C 792.800781 232.929688 814.097656 213.261719 837.289062 211.386719 C 860.746094 209.511719 877.449219 226.523438 874.339844 249.527344 Z M 874.339844 249.527344 " fill-opacity="1" fill-rule="nonzero"/><path fill="#192351" d="M 822.890625 295.023438 C 812.386719 295.023438 803.183594 291.253906 796.757812 284.230469 C 789.917969 276.777344 787.054688 266.519531 788.703125 255.378906 C 792.082031 232.601562 813.828125 212.539062 837.207031 210.667969 C 849.027344 209.71875 859.429688 213.363281 866.617188 220.941406 C 873.578125 228.296875 876.566406 238.46875 875.0625 249.632812 C 871.867188 273.171875 849.667969 293.480469 825.570312 294.941406 C 824.683594 294.980469 823.777344 295.023438 822.890625 295.023438 Z M 840.832031 212.003906 C 839.675781 212.003906 838.523438 212.046875 837.328125 212.148438 C 814.613281 213.980469 793.441406 233.464844 790.164062 255.605469 C 788.578125 266.292969 791.320312 276.097656 797.847656 283.242188 C 804.5 290.511719 814.34375 294.136719 825.488281 293.457031 C 848.90625 292.058594 870.488281 272.308594 873.578125 249.445312 C 875.019531 238.757812 872.179688 228.996094 865.523438 221.972656 C 859.410156 215.484375 850.71875 212.003906 840.832031 212.003906 Z M 840.832031 212.003906 " fill-opacity="1" fill-rule="nonzero"/><path fill="#192351" d="M 846.84375 241.148438 C 845.773438 248.621094 838.667969 255.152344 830.984375 255.667969 C 823.34375 256.203125 818.050781 250.578125 819.144531 243.144531 C 820.234375 235.730469 827.277344 229.261719 834.898438 228.6875 C 842.539062 228.109375 847.914062 233.691406 846.84375 241.148438 Z M 846.84375 241.148438 " fill-opacity="1" fill-rule="nonzero"/><path fill="#192351" d="M 850.921875 275.085938 L 805.261719 278.03125 L 806.949219 266.582031 C 807.507812 262.832031 811.027344 259.601562 814.839844 259.332031 L 846.472656 257.148438 C 850.347656 256.882812 853.066406 259.722656 852.53125 263.511719 Z M 850.921875 275.085938 " fill-opacity="1" fill-rule="nonzero"/><path fill="#ffffff" d="M 923.894531 383.539062 L 705.785156 391.613281 L 710.523438 361.894531 L 927.929688 352.214844 Z M 923.894531 383.539062 " fill-opacity="1" fill-rule="nonzero"/><path fill="#192351" d="M 786.890625 372.871094 L 784.933594 375.878906 L 780.507812 375.878906 L 784.996094 369.679688 L 781.597656 363.933594 L 786.128906 363.933594 L 787.878906 366.941406 L 789.855469 363.933594 L 794.285156 363.933594 L 789.710938 370.03125 L 793.171875 375.898438 L 788.640625 375.898438 Z M 786.890625 372.871094 " fill-opacity="1" fill-rule="nonzero"/><path fill="#192351" d="M 799.804688 372.871094 L 797.847656 375.878906 L 793.417969 375.878906 L 797.910156 369.679688 L 794.511719 363.933594 L 799.042969 363.933594 L 800.792969 366.941406 L 802.769531 363.933594 L 807.199219 363.933594 L 802.625 370.03125 L 806.085938 375.898438 L 801.554688 375.898438 Z M 799.804688 372.871094 " fill-opacity="1" fill-rule="nonzero"/><path fill="#192351" d="M 812.71875 372.871094 L 810.761719 375.878906 L 806.332031 375.878906 L 810.824219 369.679688 L 807.425781 363.933594 L 811.957031 363.933594 L 813.707031 366.941406 L 815.683594 363.933594 L 820.113281 363.933594 L 815.539062 370.03125 L 819 375.898438 L 814.46875 375.898438 Z M 812.71875 372.871094 " fill-opacity="1" fill-rule="nonzero"/><path fill="#192351" d="M 825.632812 372.871094 L 823.675781 375.878906 L 819.246094 375.878906 L 823.738281 369.679688 L 820.339844 363.933594 L 824.871094 363.933594 L 826.621094 366.941406 L 828.597656 363.933594 L 833.023438 363.933594 L 828.453125 370.03125 L 831.914062 375.898438 L 827.382812 375.898438 Z M 825.632812 372.871094 " fill-opacity="1" fill-rule="nonzero"/><path fill="#192351" d="M 838.542969 372.871094 L 836.589844 375.878906 L 832.160156 375.878906 L 836.648438 369.679688 L 833.25 363.933594 L 837.78125 363.933594 L 839.535156 366.941406 L 841.511719 363.933594 L 845.9375 363.933594 L 841.367188 370.03125 L 844.828125 375.898438 L 840.296875 375.898438 Z M 838.542969 372.871094 " fill-opacity="1" fill-rule="nonzero"/><path fill="#192351" d="M 851.457031 372.871094 L 849.5 375.878906 L 845.074219 375.878906 L 849.5625 369.679688 L 846.164062 363.933594 L 850.695312 363.933594 L 852.445312 366.941406 L 854.425781 363.933594 L 858.851562 363.933594 L 854.28125 370.03125 L 857.738281 375.898438 L 853.210938 375.898438 Z M 851.457031 372.871094 " fill-opacity="1" fill-rule="nonzero"/><path fill="#ffffff" d="M 929.824219 337.347656 L 712.789062 347.789062 L 717.484375 318.460938 L 933.800781 306.453125 Z M 929.824219 337.347656 " fill-opacity="1" fill-rule="nonzero"/><path fill="#dae4fe" d="M 873.804688 326.988281 L 768.128906 332.402344 L 768.765625 328.261719 L 874.382812 322.742188 Z M 873.804688 326.988281 " fill-opacity="1" fill-rule="nonzero"/><path fill="#192351" d="M 1037.5 479.789062 C 1038.28125 480.59375 1039.046875 481.421875 1039.785156 482.265625 C 1040.527344 483.113281 1041.246094 483.976562 1041.941406 484.859375 C 1042.640625 485.742188 1043.3125 486.644531 1043.964844 487.5625 C 1044.613281 488.484375 1045.242188 489.417969 1045.84375 490.371094 C 1046.445312 491.324219 1047.023438 492.289062 1047.578125 493.273438 C 1048.132812 494.257812 1048.660156 495.253906 1049.160156 496.265625 C 1049.664062 497.277344 1050.140625 498.304688 1050.59375 499.339844 C 1051.042969 500.378906 1051.46875 501.429688 1051.867188 502.492188 C 1052.265625 503.554688 1052.636719 504.625 1052.980469 505.707031 C 1053.324219 506.792969 1053.640625 507.882812 1053.933594 508.984375 C 1054.222656 510.085938 1054.484375 511.195312 1054.71875 512.3125 C 1054.953125 513.429688 1055.160156 514.554688 1055.335938 515.683594 C 1055.515625 516.816406 1055.664062 517.953125 1055.789062 519.09375 C 1055.910156 520.234375 1056.003906 521.378906 1056.070312 522.527344 C 1056.136719 523.675781 1056.171875 524.828125 1056.179688 525.980469 C 1056.1875 527.132812 1056.167969 528.289062 1056.121094 529.445312 C 1056.074219 530.601562 1055.996094 531.757812 1055.890625 532.910156 C 1055.789062 534.066406 1055.652344 535.21875 1055.492188 536.371094 C 1055.332031 537.523438 1055.140625 538.671875 1054.925781 539.820312 C 1054.707031 540.964844 1054.460938 542.105469 1054.191406 543.242188 C 1053.917969 544.378906 1053.617188 545.511719 1053.289062 546.636719 C 1052.960938 547.761719 1052.605469 548.878906 1052.222656 549.988281 C 1051.84375 551.097656 1051.433594 552.203125 1051 553.296875 C 1050.5625 554.390625 1050.101562 555.472656 1049.613281 556.546875 C 1049.128906 557.621094 1048.617188 558.683594 1048.078125 559.734375 C 1047.539062 560.785156 1046.976562 561.824219 1046.386719 562.851562 C 1045.800781 563.878906 1045.1875 564.894531 1044.554688 565.894531 C 1043.917969 566.890625 1043.257812 567.878906 1042.574219 568.847656 C 1041.890625 569.816406 1041.1875 570.769531 1040.457031 571.707031 C 1039.730469 572.644531 1038.980469 573.566406 1038.210938 574.472656 C 1037.441406 575.375 1036.648438 576.257812 1035.835938 577.125 C 1035.023438 577.992188 1034.191406 578.839844 1033.339844 579.671875 C 1032.488281 580.5 1031.617188 581.308594 1030.726562 582.09375 C 1029.835938 582.882812 1028.929688 583.648438 1028.003906 584.394531 C 1027.082031 585.140625 1026.140625 585.863281 1025.179688 586.566406 C 1024.222656 587.265625 1023.25 587.945312 1022.261719 588.601562 C 1021.273438 589.257812 1020.269531 589.886719 1019.253906 590.496094 C 1018.234375 591.105469 1017.207031 591.6875 1016.164062 592.246094 C 1015.121094 592.804688 1014.066406 593.339844 1013 593.847656 C 1011.933594 594.355469 1010.855469 594.839844 1009.769531 595.296875 C 1008.683594 595.753906 1007.585938 596.183594 1006.480469 596.585938 C 1005.375 596.992188 1004.261719 597.371094 1003.140625 597.71875 C 1002.019531 598.070312 1000.890625 598.394531 999.757812 598.691406 C 998.625 598.988281 997.484375 599.253906 996.339844 599.496094 C 995.199219 599.738281 994.050781 599.949219 992.898438 600.136719 C 991.746094 600.320312 990.59375 600.480469 989.4375 600.609375 C 988.28125 600.738281 987.125 600.835938 985.96875 600.910156 C 984.808594 600.984375 983.652344 601.027344 982.496094 601.042969 C 981.339844 601.058594 980.183594 601.046875 979.03125 601.003906 C 977.878906 600.964844 976.726562 600.894531 975.582031 600.796875 C 974.433594 600.699219 973.292969 600.574219 972.15625 600.421875 C 971.019531 600.265625 969.886719 600.085938 968.761719 599.875 C 967.636719 599.664062 966.519531 599.429688 965.410156 599.164062 C 964.296875 598.898438 963.195312 598.605469 962.101562 598.285156 C 961.011719 597.964844 959.925781 597.617188 958.855469 597.242188 C 957.78125 596.867188 956.71875 596.464844 955.667969 596.039062 C 954.617188 595.609375 953.582031 595.15625 952.554688 594.675781 C 951.53125 594.199219 950.519531 593.691406 949.523438 593.160156 C 948.523438 592.628906 947.542969 592.074219 946.574219 591.492188 C 945.605469 590.914062 944.65625 590.308594 943.722656 589.679688 C 942.785156 589.050781 941.867188 588.398438 940.96875 587.722656 C 940.066406 587.046875 939.183594 586.347656 938.320312 585.628906 C 937.457031 584.90625 936.613281 584.164062 935.789062 583.398438 C 934.964844 582.632812 934.160156 581.847656 933.375 581.042969 C 932.589844 580.238281 931.828125 579.410156 931.085938 578.566406 C 930.347656 577.71875 929.628906 576.855469 928.929688 575.972656 C 928.234375 575.089844 927.5625 574.1875 926.910156 573.269531 C 926.261719 572.347656 925.632812 571.414062 925.03125 570.460938 C 924.429688 569.507812 923.851562 568.542969 923.296875 567.558594 C 922.742188 566.574219 922.214844 565.578125 921.710938 564.566406 C 921.210938 563.554688 920.730469 562.527344 920.28125 561.492188 C 919.832031 560.453125 919.40625 559.402344 919.007812 558.339844 C 918.609375 557.277344 918.238281 556.207031 917.894531 555.125 C 917.550781 554.039062 917.230469 552.949219 916.941406 551.847656 C 916.652344 550.746094 916.390625 549.636719 916.15625 548.519531 C 915.921875 547.402344 915.714844 546.277344 915.535156 545.148438 C 915.359375 544.015625 915.207031 542.878906 915.085938 541.738281 C 914.964844 540.597656 914.871094 539.453125 914.804688 538.304688 C 914.738281 537.15625 914.703125 536.003906 914.695312 534.851562 C 914.683594 533.699219 914.703125 532.542969 914.753906 531.386719 C 914.800781 530.230469 914.878906 529.074219 914.980469 527.921875 C 915.085938 526.765625 915.21875 525.613281 915.382812 524.460938 C 915.542969 523.308594 915.730469 522.160156 915.949219 521.011719 C 916.167969 519.867188 916.410156 518.726562 916.683594 517.589844 C 916.957031 516.453125 917.257812 515.320312 917.585938 514.195312 C 917.914062 513.070312 918.269531 511.953125 918.648438 510.84375 C 919.03125 509.734375 919.441406 508.628906 919.875 507.535156 C 920.3125 506.441406 920.773438 505.359375 921.257812 504.285156 C 921.746094 503.210938 922.257812 502.148438 922.796875 501.097656 C 923.335938 500.046875 923.898438 499.007812 924.484375 497.980469 C 925.074219 496.953125 925.683594 495.9375 926.320312 494.9375 C 926.957031 493.941406 927.617188 492.953125 928.300781 491.984375 C 928.980469 491.015625 929.6875 490.0625 930.414062 489.125 C 931.144531 488.1875 931.890625 487.265625 932.664062 486.363281 C 933.433594 485.457031 934.226562 484.574219 935.039062 483.707031 C 935.851562 482.839844 936.683594 481.992188 937.535156 481.160156 C 938.386719 480.332031 939.257812 479.523438 940.148438 478.738281 C 941.039062 477.949219 941.945312 477.183594 942.871094 476.4375 C 943.792969 475.691406 944.734375 474.96875 945.691406 474.265625 C 946.652344 473.566406 947.625 472.886719 948.613281 472.230469 C 949.601562 471.574219 950.605469 470.945312 951.621094 470.335938 C 952.636719 469.730469 953.667969 469.144531 954.710938 468.585938 C 955.753906 468.027344 956.808594 467.492188 957.875 466.984375 C 958.941406 466.476562 960.019531 465.992188 961.105469 465.535156 C 962.191406 465.078125 963.289062 464.648438 964.394531 464.246094 C 965.5 463.839844 966.613281 463.460938 967.734375 463.113281 C 968.855469 462.761719 969.980469 462.4375 971.117188 462.140625 C 972.25 461.84375 973.386719 461.578125 974.53125 461.335938 C 975.675781 461.09375 976.824219 460.882812 977.976562 460.695312 C 979.125 460.511719 980.28125 460.355469 981.4375 460.222656 C 982.59375 460.09375 983.75 459.996094 984.90625 459.921875 C 986.066406 459.847656 987.222656 459.804688 988.378906 459.789062 C 989.535156 459.773438 990.691406 459.785156 991.84375 459.828125 C 992.996094 459.867188 994.148438 459.9375 995.292969 460.035156 C 996.441406 460.132812 997.582031 460.257812 998.71875 460.410156 C 999.855469 460.566406 1000.988281 460.746094 1002.113281 460.957031 C 1003.238281 461.167969 1004.355469 461.40625 1005.464844 461.667969 C 1006.574219 461.933594 1007.679688 462.226562 1008.769531 462.546875 C 1009.863281 462.867188 1010.945312 463.214844 1012.019531 463.589844 C 1013.09375 463.964844 1014.15625 464.367188 1015.203125 464.792969 C 1016.253906 465.222656 1017.292969 465.675781 1018.316406 466.15625 C 1019.34375 466.636719 1020.355469 467.140625 1021.351562 467.671875 C 1022.347656 468.203125 1023.332031 468.757812 1024.300781 469.339844 C 1025.265625 469.917969 1026.21875 470.523438 1027.152344 471.152344 C 1028.089844 471.78125 1029.007812 472.433594 1029.90625 473.109375 C 1030.808594 473.785156 1031.6875 474.484375 1032.554688 475.203125 C 1033.417969 475.925781 1034.261719 476.667969 1035.085938 477.433594 C 1035.910156 478.199219 1036.714844 478.984375 1037.5 479.789062 Z M 1037.5 479.789062 " fill-opacity="1" fill-rule="nonzero"/><path fill="#ffffff" d="M 1028.082031 474.492188 C 1028.867188 475.300781 1029.628906 476.125 1030.371094 476.972656 C 1031.113281 477.816406 1031.832031 478.683594 1032.527344 479.566406 C 1033.226562 480.449219 1033.898438 481.351562 1034.550781 482.269531 C 1035.199219 483.1875 1035.824219 484.125 1036.429688 485.074219 C 1037.03125 486.027344 1037.609375 486.996094 1038.164062 487.980469 C 1038.714844 488.960938 1039.246094 489.960938 1039.746094 490.972656 C 1040.25 491.984375 1040.726562 493.007812 1041.179688 494.046875 C 1041.628906 495.085938 1042.054688 496.132812 1042.453125 497.195312 C 1042.851562 498.257812 1043.222656 499.332031 1043.566406 500.414062 C 1043.910156 501.496094 1044.226562 502.589844 1044.515625 503.691406 C 1044.808594 504.792969 1045.070312 505.902344 1045.304688 507.019531 C 1045.539062 508.136719 1045.742188 509.257812 1045.921875 510.390625 C 1046.101562 511.519531 1046.25 512.65625 1046.375 513.796875 C 1046.496094 514.9375 1046.589844 516.082031 1046.65625 517.230469 C 1046.71875 518.378906 1046.757812 519.53125 1046.765625 520.6875 C 1046.773438 521.839844 1046.753906 522.992188 1046.707031 524.148438 C 1046.660156 525.304688 1046.582031 526.460938 1046.476562 527.617188 C 1046.371094 528.773438 1046.238281 529.925781 1046.078125 531.078125 C 1045.917969 532.230469 1045.726562 533.378906 1045.511719 534.523438 C 1045.292969 535.667969 1045.046875 536.808594 1044.773438 537.949219 C 1044.5 539.085938 1044.203125 540.214844 1043.875 541.339844 C 1043.546875 542.464844 1043.191406 543.582031 1042.808594 544.695312 C 1042.425781 545.804688 1042.019531 546.90625 1041.582031 548 C 1041.148438 549.09375 1040.6875 550.175781 1040.199219 551.25 C 1039.714844 552.324219 1039.199219 553.386719 1038.664062 554.441406 C 1038.125 555.492188 1037.5625 556.53125 1036.972656 557.558594 C 1036.386719 558.585938 1035.773438 559.597656 1035.136719 560.597656 C 1034.5 561.597656 1033.84375 562.582031 1033.160156 563.550781 C 1032.476562 564.523438 1031.773438 565.476562 1031.042969 566.414062 C 1030.316406 567.351562 1029.566406 568.273438 1028.796875 569.175781 C 1028.023438 570.078125 1027.234375 570.964844 1026.421875 571.832031 C 1025.609375 572.699219 1024.777344 573.546875 1023.921875 574.375 C 1023.070312 575.203125 1022.199219 576.011719 1021.3125 576.800781 C 1020.421875 577.589844 1019.515625 578.355469 1018.589844 579.101562 C 1017.664062 579.847656 1016.722656 580.570312 1015.765625 581.269531 C 1014.808594 581.972656 1013.835938 582.648438 1012.847656 583.304688 C 1011.859375 583.960938 1010.855469 584.59375 1009.839844 585.199219 C 1008.820312 585.808594 1007.792969 586.390625 1006.75 586.949219 C 1005.707031 587.507812 1004.652344 588.042969 1003.585938 588.550781 C 1002.519531 589.058594 1001.441406 589.542969 1000.355469 590 C 999.265625 590.457031 998.171875 590.886719 997.066406 591.292969 C 995.960938 591.695312 994.847656 592.074219 993.726562 592.425781 C 992.605469 592.777344 991.476562 593.097656 990.34375 593.394531 C 989.210938 593.691406 988.070312 593.960938 986.925781 594.203125 C 985.78125 594.441406 984.636719 594.65625 983.484375 594.839844 C 982.332031 595.027344 981.179688 595.183594 980.023438 595.3125 C 978.867188 595.441406 977.710938 595.542969 976.550781 595.613281 C 975.394531 595.6875 974.238281 595.730469 973.082031 595.746094 C 971.921875 595.765625 970.769531 595.75 969.617188 595.710938 C 968.460938 595.667969 967.3125 595.601562 966.167969 595.503906 C 965.019531 595.40625 963.878906 595.28125 962.742188 595.125 C 961.605469 594.972656 960.472656 594.789062 959.347656 594.582031 C 958.222656 594.371094 957.105469 594.132812 955.992188 593.867188 C 954.882812 593.601562 953.78125 593.308594 952.6875 592.988281 C 951.59375 592.667969 950.511719 592.320312 949.441406 591.945312 C 948.367188 591.570312 947.304688 591.171875 946.253906 590.742188 C 945.203125 590.316406 944.167969 589.863281 943.140625 589.382812 C 942.117188 588.902344 941.105469 588.398438 940.109375 587.867188 C 939.109375 587.335938 938.128906 586.78125 937.160156 586.199219 C 936.191406 585.617188 935.242188 585.011719 934.304688 584.382812 C 933.371094 583.753906 932.453125 583.101562 931.554688 582.425781 C 930.652344 581.75 929.769531 581.054688 928.90625 580.332031 C 928.042969 579.609375 927.199219 578.867188 926.375 578.105469 C 925.550781 577.339844 924.746094 576.554688 923.960938 575.75 C 923.175781 574.941406 922.414062 574.117188 921.671875 573.269531 C 920.933594 572.425781 920.210938 571.558594 919.515625 570.675781 C 918.820312 569.792969 918.144531 568.890625 917.496094 567.972656 C 916.84375 567.054688 916.21875 566.117188 915.617188 565.167969 C 915.011719 564.214844 914.433594 563.246094 913.882812 562.261719 C 913.328125 561.28125 912.800781 560.28125 912.296875 559.269531 C 911.792969 558.257812 911.316406 557.234375 910.867188 556.195312 C 910.414062 555.15625 909.992188 554.109375 909.59375 553.046875 C 909.195312 551.984375 908.824219 550.910156 908.480469 549.828125 C 908.132812 548.746094 907.816406 547.652344 907.527344 546.550781 C 907.238281 545.449219 906.976562 544.339844 906.742188 543.222656 C 906.507812 542.105469 906.300781 540.980469 906.121094 539.851562 C 905.945312 538.722656 905.792969 537.585938 905.671875 536.445312 C 905.550781 535.304688 905.457031 534.160156 905.390625 533.011719 C 905.324219 531.859375 905.289062 530.710938 905.277344 529.554688 C 905.269531 528.402344 905.289062 527.246094 905.335938 526.09375 C 905.386719 524.9375 905.460938 523.78125 905.566406 522.625 C 905.671875 521.46875 905.804688 520.316406 905.964844 519.164062 C 906.128906 518.011719 906.316406 516.863281 906.535156 515.71875 C 906.75 514.574219 906.996094 513.429688 907.269531 512.292969 C 907.542969 511.15625 907.84375 510.027344 908.171875 508.902344 C 908.5 507.777344 908.851562 506.660156 909.234375 505.546875 C 909.617188 504.4375 910.027344 503.335938 910.460938 502.242188 C 910.894531 501.148438 911.355469 500.0625 911.84375 498.988281 C 912.332031 497.917969 912.84375 496.851562 913.382812 495.800781 C 913.921875 494.75 914.484375 493.710938 915.070312 492.683594 C 915.660156 491.65625 916.269531 490.644531 916.90625 489.644531 C 917.542969 488.644531 918.203125 487.660156 918.882812 486.691406 C 919.566406 485.71875 920.273438 484.765625 921 483.828125 C 921.726562 482.890625 922.476562 481.96875 923.25 481.066406 C 924.019531 480.164062 924.8125 479.277344 925.625 478.410156 C 926.4375 477.542969 927.269531 476.695312 928.121094 475.867188 C 928.972656 475.039062 929.84375 474.230469 930.734375 473.441406 C 931.621094 472.652344 932.53125 471.886719 933.453125 471.140625 C 934.378906 470.394531 935.320312 469.671875 936.277344 468.972656 C 937.238281 468.269531 938.210938 467.589844 939.199219 466.9375 C 940.1875 466.28125 941.191406 465.648438 942.207031 465.042969 C 943.222656 464.433594 944.253906 463.851562 945.296875 463.292969 C 946.339844 462.730469 947.394531 462.199219 948.460938 461.691406 C 949.527344 461.179688 950.601562 460.699219 951.691406 460.242188 C 952.777344 459.785156 953.875 459.355469 954.980469 458.949219 C 956.085938 458.546875 957.199219 458.167969 958.320312 457.816406 C 959.441406 457.464844 960.566406 457.144531 961.699219 456.847656 C 962.835938 456.550781 963.972656 456.28125 965.117188 456.039062 C 966.261719 455.800781 967.410156 455.585938 968.5625 455.402344 C 969.710938 455.214844 970.867188 455.058594 972.023438 454.929688 C 973.175781 454.800781 974.335938 454.699219 975.492188 454.625 C 976.648438 454.554688 977.808594 454.511719 978.964844 454.492188 C 980.121094 454.476562 981.277344 454.492188 982.429688 454.53125 C 983.582031 454.570312 984.730469 454.640625 985.878906 454.738281 C 987.023438 454.835938 988.167969 454.960938 989.304688 455.117188 C 990.441406 455.269531 991.570312 455.453125 992.699219 455.660156 C 993.824219 455.871094 994.941406 456.109375 996.050781 456.375 C 997.160156 456.640625 998.261719 456.933594 999.355469 457.253906 C 1000.449219 457.574219 1001.53125 457.921875 1002.605469 458.296875 C 1003.679688 458.667969 1004.738281 459.070312 1005.789062 459.5 C 1006.839844 459.925781 1007.878906 460.378906 1008.902344 460.859375 C 1009.929688 461.339844 1010.941406 461.84375 1011.9375 462.375 C 1012.933594 462.90625 1013.917969 463.460938 1014.882812 464.042969 C 1015.851562 464.625 1016.804688 465.226562 1017.738281 465.855469 C 1018.671875 466.484375 1019.589844 467.140625 1020.492188 467.8125 C 1021.390625 468.488281 1022.273438 469.1875 1023.136719 469.910156 C 1024 470.628906 1024.847656 471.375 1025.671875 472.136719 C 1026.496094 472.902344 1027.300781 473.6875 1028.082031 474.492188 Z M 1028.082031 474.492188 " fill-opacity="1" fill-rule="nonzero"/><path fill="#192351" d="M 972.066406 596.925781 C 952.890625 596.925781 935.261719 589.46875 922.453125 575.898438 C 909.601562 562.304688 903.113281 544.242188 904.183594 525.027344 C 906.386719 485.464844 940.371094 453.273438 979.933594 453.273438 C 999.109375 453.273438 1016.738281 460.730469 1029.550781 474.300781 C 1042.402344 487.894531 1048.890625 505.957031 1047.820312 525.171875 C 1045.613281 564.734375 1011.632812 596.925781 972.066406 596.925781 Z M 979.933594 455.644531 C 941.605469 455.644531 908.671875 486.824219 906.550781 525.171875 C 905.523438 543.726562 911.785156 561.171875 924.183594 574.269531 C 936.558594 587.347656 953.570312 594.554688 972.085938 594.554688 C 1010.417969 594.554688 1043.347656 563.375 1045.46875 525.046875 C 1046.5 506.492188 1040.238281 489.046875 1027.839844 475.949219 C 1015.460938 462.851562 998.449219 455.644531 979.933594 455.644531 Z M 979.933594 455.644531 " fill-opacity="1" fill-rule="nonzero"/><path fill="#4b6fdd" d="M 941.359375 511.742188 L 940.535156 510.035156 L 977.917969 490.652344 L 978.347656 490.902344 L 1013.136719 510.035156 L 1012.125 511.742188 L 977.792969 492.878906 Z M 941.359375 511.742188 " fill-opacity="1" fill-rule="nonzero"/><path fill="#4b6fdd" d="M 1003.1875 510.878906 L 1000.488281 559.480469 L 1008.890625 559.480469 L 1011.589844 510.878906 Z M 1010.25 515.449219 L 1008.046875 554.972656 L 1006.894531 554.972656 L 1009.097656 515.449219 Z M 1007.71875 515.449219 L 1005.515625 554.972656 L 1004.359375 554.972656 L 1006.566406 515.449219 Z M 1005.183594 515.449219 L 1002.980469 554.972656 L 1001.828125 554.972656 L 1004.03125 515.449219 Z M 1005.183594 515.449219 " fill-opacity="1" fill-rule="nonzero"/><path fill="#4b6fdd" d="M 1012.496094 513.289062 L 1002.035156 513.289062 L 1002.179688 510.878906 L 1012.621094 510.878906 Z M 1012.496094 513.289062 " fill-opacity="1" fill-rule="nonzero"/><path fill="#4b6fdd" d="M 1009.921875 559.542969 L 999.460938 559.542969 L 999.605469 557.15625 L 1010.046875 557.15625 Z M 1009.921875 559.542969 " fill-opacity="1" fill-rule="nonzero"/><path fill="#4b6fdd" d="M 989.574219 510.878906 L 986.875 559.480469 L 995.277344 559.480469 L 997.976562 510.878906 Z M 996.660156 515.449219 L 994.453125 554.972656 L 993.300781 554.972656 L 995.503906 515.449219 Z M 994.105469 515.449219 L 991.902344 554.972656 L 990.746094 554.972656 L 992.953125 515.449219 Z M 991.570312 515.449219 L 989.367188 554.972656 L 988.214844 554.972656 L 990.417969 515.449219 Z M 991.570312 515.449219 " fill-opacity="1" fill-rule="nonzero"/><path fill="#4b6fdd" d="M 998.882812 513.289062 L 988.421875 513.289062 L 988.5625 510.878906 L 999.007812 510.878906 Z M 998.882812 513.289062 " fill-opacity="1" fill-rule="nonzero"/><path fill="#4b6fdd" d="M 996.308594 559.542969 L 985.847656 559.542969 L 985.988281 557.15625 L 996.433594 557.15625 Z M 996.308594 559.542969 " fill-opacity="1" fill-rule="nonzero"/><path fill="#4b6fdd" d="M 957.484375 510.878906 L 954.789062 559.480469 L 963.191406 559.480469 L 965.886719 510.878906 Z M 964.550781 515.449219 L 962.347656 554.972656 L 961.191406 554.972656 L 963.394531 515.449219 Z M 962.015625 515.449219 L 959.8125 554.972656 L 958.660156 554.972656 L 960.863281 515.449219 Z M 959.484375 515.449219 L 957.28125 554.972656 L 956.125 554.972656 L 958.328125 515.449219 Z M 959.484375 515.449219 " fill-opacity="1" fill-rule="nonzero"/><path fill="#4b6fdd" d="M 966.773438 513.289062 L 956.332031 513.289062 L 956.457031 510.878906 L 966.917969 510.878906 Z M 966.773438 513.289062 " fill-opacity="1" fill-rule="nonzero"/><path fill="#4b6fdd" d="M 964.199219 559.542969 L 953.757812 559.542969 L 953.882812 557.15625 L 964.34375 557.15625 Z M 964.199219 559.542969 " fill-opacity="1" fill-rule="nonzero"/><path fill="#4b6fdd" d="M 943.871094 510.878906 L 941.171875 559.480469 L 949.578125 559.480469 L 952.273438 510.878906 Z M 948.402344 515.449219 L 946.199219 554.972656 L 945.046875 554.972656 L 947.25 515.449219 Z M 945.871094 515.449219 L 943.664062 554.972656 L 942.511719 554.972656 L 944.714844 515.449219 Z M 945.871094 515.449219 " fill-opacity="1" fill-rule="nonzero"/><path fill="#4b6fdd" d="M 953.160156 513.289062 L 942.71875 513.289062 L 942.839844 510.878906 L 953.304688 510.878906 Z M 953.160156 513.289062 " fill-opacity="1" fill-rule="nonzero"/><path fill="#4b6fdd" d="M 950.585938 559.542969 L 940.144531 559.542969 L 940.265625 557.15625 L 950.730469 557.15625 Z M 950.585938 559.542969 " fill-opacity="1" fill-rule="nonzero"/><path fill="#4b6fdd" d="M 982.054688 536.148438 L 980.777344 559.152344 C 980.777344 559.339844 980.613281 559.480469 980.429688 559.480469 L 979.214844 559.480469 C 979.359375 559.480469 979.480469 559.359375 979.480469 559.214844 L 980.757812 536.292969 C 980.902344 533.574219 978.824219 531.371094 976.105469 531.371094 C 973.386719 531.371094 971.058594 533.574219 970.894531 536.292969 L 969.617188 559.214844 C 969.617188 559.359375 969.71875 559.480469 969.863281 559.480469 L 968.648438 559.480469 C 968.464844 559.480469 968.339844 559.339844 968.339844 559.152344 L 969.617188 536.148438 C 969.800781 532.730469 972.746094 529.949219 976.164062 529.949219 C 979.585938 529.949219 982.242188 532.730469 982.054688 536.148438 Z M 982.054688 536.148438 " fill-opacity="1" fill-rule="nonzero"/><path fill="#4b6fdd" d="M 977.050781 514.421875 C 973.632812 514.421875 970.6875 517.199219 970.5 520.621094 L 970.296875 524.367188 C 970.296875 524.554688 970.417969 524.699219 970.605469 524.699219 L 982.363281 524.699219 C 982.550781 524.699219 982.695312 524.554688 982.714844 524.367188 L 982.921875 520.621094 C 983.105469 517.199219 980.46875 514.421875 977.050781 514.421875 Z M 977.050781 514.421875 " fill-opacity="1" fill-rule="nonzero"/><path fill="#4b6fdd" d="M 988.625 528.054688 L 964.941406 528.054688 L 964.980469 527.105469 L 988.6875 527.105469 Z M 988.625 528.054688 " fill-opacity="1" fill-rule="nonzero"/><path fill="#4b6fdd" d="M 1013.011719 511.992188 L 940.433594 511.992188 C 939.855469 511.992188 939.421875 511.539062 939.464844 510.960938 L 939.464844 510.898438 C 939.503906 510.324219 939.980469 509.871094 940.554688 509.871094 L 1013.136719 509.871094 C 1013.710938 509.871094 1014.144531 510.324219 1014.101562 510.898438 L 1014.101562 510.960938 C 1014.0625 511.539062 1013.589844 511.992188 1013.011719 511.992188 Z M 1013.011719 511.992188 " fill-opacity="1" fill-rule="nonzero"/><path fill="#4b6fdd" d="M 976.949219 505.976562 C 975.710938 505.851562 974.828125 505.152344 974.867188 503.9375 L 976.535156 503.957031 C 976.558594 504.351562 976.722656 504.597656 977.03125 504.699219 L 977.132812 503.195312 C 976.164062 502.929688 974.949219 502.621094 975.054688 501.117188 C 975.136719 499.921875 976.144531 499.222656 977.402344 499.160156 L 977.441406 498.378906 L 978.039062 498.378906 L 978 499.160156 C 979.253906 499.285156 980.015625 499.964844 980.015625 501.15625 L 978.328125 501.136719 C 978.308594 500.785156 978.164062 500.558594 977.894531 500.457031 L 977.792969 501.941406 C 978.761719 502.230469 979.996094 502.515625 979.914062 504 C 979.851562 505.03125 978.988281 505.9375 977.523438 505.976562 L 977.484375 506.757812 L 976.886719 506.757812 Z M 977.214844 501.734375 L 977.296875 500.417969 C 976.949219 500.476562 976.722656 500.683594 976.703125 501.054688 C 976.703125 501.382812 976.90625 501.589844 977.214844 501.734375 Z M 977.710938 503.382812 L 977.628906 504.742188 C 978 504.679688 978.246094 504.433594 978.265625 504.0625 C 978.285156 503.710938 978.058594 503.527344 977.710938 503.382812 Z M 977.710938 503.382812 " fill-opacity="1" fill-rule="nonzero"/><path fill="#192351" d="M 667.207031 94.636719 C 667.207031 94.636719 643.875 113.644531 599.613281 112.449219 L 599.613281 186.839844 C 599.613281 186.839844 629.828125 256.839844 667.25 256.839844 C 704.671875 256.839844 734.804688 186.839844 734.804688 186.839844 L 734.804688 112.449219 C 690.542969 113.644531 667.207031 94.636719 667.207031 94.636719 Z M 667.207031 94.636719 " fill-opacity="1" fill-rule="nonzero"/><path fill="#4b6fdd" d="M 728.5625 118.792969 L 728.5625 185.398438 C 726.441406 190.011719 719.5 204.488281 709.554688 218.71875 C 699.234375 233.464844 683.519531 251.03125 667.230469 251.03125 L 667.1875 251.03125 C 650.917969 251.011719 635.183594 233.445312 624.863281 218.699219 C 614.894531 204.488281 607.933594 190.011719 605.832031 185.375 L 605.832031 118.773438 C 637.34375 117.925781 658.105469 107.734375 667.1875 102.152344 C 676.292969 107.753906 697.050781 117.949219 728.5625 118.792969 Z M 728.5625 118.792969 " fill-opacity="1" fill-rule="nonzero"/><path fill="#192351" d="M 728.5625 118.792969 L 728.5625 185.398438 C 726.441406 190.011719 719.5 204.488281 709.554688 218.71875 C 699.234375 233.464844 683.519531 251.03125 667.230469 251.03125 L 667.1875 251.03125 L 667.1875 102.152344 C 676.292969 107.753906 697.050781 117.949219 728.5625 118.792969 Z M 728.5625 118.792969 " fill-opacity="0.2" fill-rule="nonzero"/><path fill="#ffffff" d="M 646.796875 192.523438 L 635.839844 168.242188 C 634.730469 165.789062 635.820312 162.90625 638.273438 161.816406 C 640.722656 160.722656 643.605469 161.792969 644.699219 164.246094 L 651.328125 178.972656 L 698.636719 153.1875 C 700.984375 151.886719 703.953125 152.773438 705.226562 155.121094 C 706.503906 157.492188 705.640625 160.433594 703.292969 161.710938 Z M 646.796875 192.523438 " fill-opacity="1" fill-rule="nonzero"/><g clip-path="url(#f2fe79c513)"><path fill="#192351" d="M 297.472656 761.292969 L 1109.605469 761.292969 L 1109.605469 769.363281 L 297.472656 769.363281 Z M 297.472656 761.292969 " fill-opacity="1" fill-rule="nonzero"/></g><path fill="#4b6fdd" d="M 757.914062 645.488281 L 757.914062 667.976562 C 757.914062 670.015625 756.246094 671.664062 754.183594 671.664062 L 641.464844 671.664062 C 639.425781 671.664062 637.757812 669.996094 637.757812 667.976562 L 637.757812 645.488281 C 637.757812 643.449219 639.425781 641.800781 641.464844 641.800781 L 754.183594 641.800781 C 756.246094 641.800781 757.914062 643.46875 757.914062 645.488281 Z M 757.914062 645.488281 " fill-opacity="1" fill-rule="nonzero"/><path fill="#192351" d="M 757.914062 665.980469 L 757.914062 667.976562 C 757.914062 670.015625 756.246094 671.664062 754.183594 671.664062 L 641.464844 671.664062 C 639.425781 671.664062 637.757812 669.996094 637.757812 667.976562 L 637.757812 665.980469 Z M 757.914062 665.980469 " fill-opacity="1" fill-rule="nonzero"/><path fill="#192351" d="M 650.589844 663.425781 C 650.15625 663.425781 649.824219 663.074219 649.824219 662.664062 L 649.824219 649.480469 C 649.824219 649.050781 650.175781 648.71875 650.589844 648.71875 C 651 648.71875 651.351562 649.070312 651.351562 649.480469 L 651.351562 662.664062 C 651.371094 663.074219 651.019531 663.425781 650.589844 663.425781 Z M 650.589844 663.425781 " fill-opacity="1" fill-rule="nonzero"/><path fill="#192351" d="M 666.34375 663.425781 C 665.910156 663.425781 665.582031 663.074219 665.582031 662.664062 L 665.582031 649.480469 C 665.582031 649.050781 665.933594 648.71875 666.34375 648.71875 C 666.753906 648.71875 667.105469 649.070312 667.105469 649.480469 L 667.105469 662.664062 C 667.105469 663.074219 666.777344 663.425781 666.34375 663.425781 Z M 666.34375 663.425781 " fill-opacity="1" fill-rule="nonzero"/><path fill="#192351" d="M 682.097656 663.425781 C 681.667969 663.425781 681.335938 663.074219 681.335938 662.664062 L 681.335938 649.480469 C 681.335938 649.050781 681.6875 648.71875 682.097656 648.71875 C 682.511719 648.71875 682.863281 649.070312 682.863281 649.480469 L 682.863281 662.664062 C 682.863281 663.074219 682.511719 663.425781 682.097656 663.425781 Z M 682.097656 663.425781 " fill-opacity="1" fill-rule="nonzero"/><path fill="#192351" d="M 697.835938 663.425781 C 697.402344 663.425781 697.074219 663.074219 697.074219 662.664062 L 697.074219 649.480469 C 697.074219 649.050781 697.421875 648.71875 697.835938 648.71875 C 698.246094 648.71875 698.597656 649.070312 698.597656 649.480469 L 698.597656 662.664062 C 698.617188 663.074219 698.265625 663.425781 697.835938 663.425781 Z M 697.835938 663.425781 " fill-opacity="1" fill-rule="nonzero"/><path fill="#192351" d="M 713.589844 663.425781 C 713.15625 663.425781 712.828125 663.074219 712.828125 662.664062 L 712.828125 649.480469 C 712.828125 649.050781 713.179688 648.71875 713.589844 648.71875 C 714.003906 648.71875 714.351562 649.070312 714.351562 649.480469 L 714.351562 662.664062 C 714.351562 663.074219 714.023438 663.425781 713.589844 663.425781 Z M 713.589844 663.425781 " fill-opacity="1" fill-rule="nonzero"/><path fill="#192351" d="M 729.347656 663.425781 C 728.914062 663.425781 728.585938 663.074219 728.585938 662.664062 L 728.585938 649.480469 C 728.585938 649.050781 728.933594 648.71875 729.347656 648.71875 C 729.757812 648.71875 730.109375 649.070312 730.109375 649.480469 L 730.109375 662.664062 C 730.109375 663.074219 729.757812 663.425781 729.347656 663.425781 Z M 729.347656 663.425781 " fill-opacity="1" fill-rule="nonzero"/><path fill="#192351" d="M 745.082031 663.425781 C 744.648438 663.425781 744.320312 663.074219 744.320312 662.664062 L 744.320312 649.480469 C 744.320312 649.050781 744.667969 648.71875 745.082031 648.71875 C 745.492188 648.71875 745.84375 649.070312 745.84375 649.480469 L 745.84375 662.664062 C 745.863281 663.074219 745.515625 663.425781 745.082031 663.425781 Z M 745.082031 663.425781 " fill-opacity="1" fill-rule="nonzero"/><path fill="#4b6fdd" d="M 743.515625 675.371094 L 743.515625 697.859375 C 743.515625 699.898438 741.847656 701.546875 739.789062 701.546875 L 627.066406 701.546875 C 625.027344 701.546875 623.359375 699.878906 623.359375 697.859375 L 623.359375 675.371094 C 623.359375 673.332031 625.027344 671.683594 627.066406 671.683594 L 739.789062 671.683594 C 741.867188 671.683594 743.515625 673.332031 743.515625 675.371094 Z M 743.515625 675.371094 " fill-opacity="1" fill-rule="nonzero"/><path fill="#192351" d="M 743.515625 695.863281 L 743.515625 697.859375 C 743.515625 699.898438 741.847656 701.546875 739.789062 701.546875 L 627.066406 701.546875 C 625.027344 701.546875 623.359375 699.878906 623.359375 697.859375 L 623.359375 695.863281 Z M 743.515625 695.863281 " fill-opacity="1" fill-rule="nonzero"/><path fill="#192351" d="M 636.210938 693.308594 C 635.78125 693.308594 635.449219 692.957031 635.449219 692.546875 L 635.449219 679.367188 C 635.449219 678.933594 635.800781 678.601562 636.210938 678.601562 C 636.625 678.601562 636.972656 678.953125 636.972656 679.367188 L 636.972656 692.546875 C 636.972656 692.957031 636.625 693.308594 636.210938 693.308594 Z M 636.210938 693.308594 " fill-opacity="1" fill-rule="nonzero"/><path fill="#192351" d="M 651.96875 693.308594 C 651.535156 693.308594 651.207031 692.957031 651.207031 692.546875 L 651.207031 679.367188 C 651.207031 678.933594 651.554688 678.601562 651.96875 678.601562 C 652.378906 678.601562 652.730469 678.953125 652.730469 679.367188 L 652.730469 692.546875 C 652.730469 692.957031 652.378906 693.308594 651.96875 693.308594 Z M 651.96875 693.308594 " fill-opacity="1" fill-rule="nonzero"/><path fill="#192351" d="M 667.703125 693.308594 C 667.269531 693.308594 666.941406 692.957031 666.941406 692.546875 L 666.941406 679.367188 C 666.941406 678.933594 667.292969 678.601562 667.703125 678.601562 C 668.113281 678.601562 668.464844 678.953125 668.464844 679.367188 L 668.464844 692.546875 C 668.484375 692.957031 668.136719 693.308594 667.703125 693.308594 Z M 667.703125 693.308594 " fill-opacity="1" fill-rule="nonzero"/><path fill="#192351" d="M 683.457031 693.308594 C 683.027344 693.308594 682.695312 692.957031 682.695312 692.546875 L 682.695312 679.367188 C 682.695312 678.933594 683.046875 678.601562 683.457031 678.601562 C 683.871094 678.601562 684.222656 678.953125 684.222656 679.367188 L 684.222656 692.546875 C 684.222656 692.957031 683.890625 693.308594 683.457031 693.308594 Z M 683.457031 693.308594 " fill-opacity="1" fill-rule="nonzero"/><path fill="#192351" d="M 699.214844 693.308594 C 698.78125 693.308594 698.453125 692.957031 698.453125 692.546875 L 698.453125 679.367188 C 698.453125 678.933594 698.800781 678.601562 699.214844 678.601562 C 699.625 678.601562 699.976562 678.953125 699.976562 679.367188 L 699.976562 692.546875 C 699.976562 692.957031 699.625 693.308594 699.214844 693.308594 Z M 699.214844 693.308594 " fill-opacity="1" fill-rule="nonzero"/><path fill="#192351" d="M 714.949219 693.308594 C 714.515625 693.308594 714.1875 692.957031 714.1875 692.546875 L 714.1875 679.367188 C 714.1875 678.933594 714.539062 678.601562 714.949219 678.601562 C 715.363281 678.601562 715.710938 678.953125 715.710938 679.367188 L 715.710938 692.546875 C 715.730469 692.957031 715.382812 693.308594 714.949219 693.308594 Z M 714.949219 693.308594 " fill-opacity="1" fill-rule="nonzero"/><path fill="#192351" d="M 730.707031 693.308594 C 730.273438 693.308594 729.945312 692.957031 729.945312 692.546875 L 729.945312 679.367188 C 729.945312 678.933594 730.292969 678.601562 730.707031 678.601562 C 731.117188 678.601562 731.46875 678.953125 731.46875 679.367188 L 731.46875 692.546875 C 731.46875 692.957031 731.136719 693.308594 730.707031 693.308594 Z M 730.707031 693.308594 " fill-opacity="1" fill-rule="nonzero"/><path fill="#4b6fdd" d="M 753.566406 705.253906 L 753.566406 727.742188 C 753.566406 729.78125 751.898438 731.429688 749.839844 731.429688 L 637.117188 731.429688 C 635.078125 731.429688 633.410156 729.761719 633.410156 727.742188 L 633.410156 705.253906 C 633.410156 703.214844 635.078125 701.566406 637.117188 701.566406 L 749.839844 701.566406 C 751.898438 701.546875 753.566406 703.214844 753.566406 705.253906 Z M 753.566406 705.253906 " fill-opacity="1" fill-rule="nonzero"/><path fill="#192351" d="M 753.566406 725.746094 L 753.566406 727.742188 C 753.566406 729.78125 751.898438 731.429688 749.839844 731.429688 L 637.117188 731.429688 C 635.078125 731.429688 633.410156 729.761719 633.410156 727.742188 L 633.410156 725.746094 Z M 753.566406 725.746094 " fill-opacity="1" fill-rule="nonzero"/><path fill="#192351" d="M 646.242188 723.171875 C 645.808594 723.171875 645.480469 722.820312 645.480469 722.410156 L 645.480469 709.226562 C 645.480469 708.796875 645.832031 708.464844 646.242188 708.464844 C 646.652344 708.464844 647.003906 708.816406 647.003906 709.226562 L 647.003906 722.410156 C 647.023438 722.839844 646.675781 723.171875 646.242188 723.171875 Z M 646.242188 723.171875 " fill-opacity="1" fill-rule="nonzero"/><path fill="#192351" d="M 661.996094 723.171875 C 661.566406 723.171875 661.234375 722.820312 661.234375 722.410156 L 661.234375 709.226562 C 661.234375 708.796875 661.585938 708.464844 661.996094 708.464844 C 662.410156 708.464844 662.761719 708.816406 662.761719 709.226562 L 662.761719 722.410156 C 662.78125 722.839844 662.429688 723.171875 661.996094 723.171875 Z M 661.996094 723.171875 " fill-opacity="1" fill-rule="nonzero"/><path fill="#192351" d="M 677.753906 723.171875 C 677.320312 723.171875 676.992188 722.820312 676.992188 722.410156 L 676.992188 709.226562 C 676.992188 708.796875 677.34375 708.464844 677.753906 708.464844 C 678.164062 708.464844 678.515625 708.816406 678.515625 709.226562 L 678.515625 722.410156 C 678.515625 722.839844 678.164062 723.171875 677.753906 723.171875 Z M 677.753906 723.171875 " fill-opacity="1" fill-rule="nonzero"/><path fill="#192351" d="M 693.488281 723.171875 C 693.054688 723.171875 692.726562 722.820312 692.726562 722.410156 L 692.726562 709.226562 C 692.726562 708.796875 693.078125 708.464844 693.488281 708.464844 C 693.902344 708.464844 694.25 708.816406 694.25 709.226562 L 694.25 722.410156 C 694.273438 722.839844 693.921875 723.171875 693.488281 723.171875 Z M 693.488281 723.171875 " fill-opacity="1" fill-rule="nonzero"/><path fill="#192351" d="M 709.246094 723.171875 C 708.8125 723.171875 708.484375 722.820312 708.484375 722.410156 L 708.484375 709.226562 C 708.484375 708.796875 708.832031 708.464844 709.246094 708.464844 C 709.65625 708.464844 710.007812 708.816406 710.007812 709.226562 L 710.007812 722.410156 C 710.027344 722.839844 709.675781 723.171875 709.246094 723.171875 Z M 709.246094 723.171875 " fill-opacity="1" fill-rule="nonzero"/><path fill="#192351" d="M 725 723.171875 C 724.566406 723.171875 724.238281 722.820312 724.238281 722.410156 L 724.238281 709.226562 C 724.238281 708.796875 724.589844 708.464844 725 708.464844 C 725.414062 708.464844 725.761719 708.816406 725.761719 709.226562 L 725.761719 722.410156 C 725.761719 722.839844 725.414062 723.171875 725 723.171875 Z M 725 723.171875 " fill-opacity="1" fill-rule="nonzero"/><path fill="#192351" d="M 740.757812 723.171875 C 740.324219 723.171875 739.996094 722.820312 739.996094 722.410156 L 739.996094 709.226562 C 739.996094 708.796875 740.34375 708.464844 740.757812 708.464844 C 741.167969 708.464844 741.519531 708.816406 741.519531 709.226562 L 741.519531 722.410156 C 741.519531 722.839844 741.167969 723.171875 740.757812 723.171875 Z M 740.757812 723.171875 " fill-opacity="1" fill-rule="nonzero"/><path fill="#4b6fdd" d="M 757.914062 735.136719 L 757.914062 757.625 C 757.914062 759.664062 756.246094 761.3125 754.183594 761.3125 L 641.464844 761.3125 C 639.425781 761.3125 637.757812 759.644531 637.757812 757.625 L 637.757812 735.136719 C 637.757812 733.097656 639.425781 731.449219 641.464844 731.449219 L 754.183594 731.449219 C 756.246094 731.429688 757.914062 733.097656 757.914062 735.136719 Z M 757.914062 735.136719 " fill-opacity="1" fill-rule="nonzero"/><path fill="#192351" d="M 757.914062 755.609375 L 757.914062 757.605469 C 757.914062 759.644531 756.246094 761.292969 754.183594 761.292969 L 641.464844 761.292969 C 639.425781 761.292969 637.757812 759.625 637.757812 757.605469 L 637.757812 755.609375 Z M 757.914062 755.609375 " fill-opacity="1" fill-rule="nonzero"/><path fill="#192351" d="M 650.589844 753.054688 C 650.15625 753.054688 649.824219 752.703125 649.824219 752.292969 L 649.824219 739.109375 C 649.824219 738.679688 650.175781 738.347656 650.589844 738.347656 C 651 738.347656 651.351562 738.699219 651.351562 739.109375 L 651.351562 752.292969 C 651.371094 752.703125 651.019531 753.054688 650.589844 753.054688 Z M 650.589844 753.054688 " fill-opacity="1" fill-rule="nonzero"/><path fill="#192351" d="M 666.34375 753.054688 C 665.910156 753.054688 665.582031 752.703125 665.582031 752.292969 L 665.582031 739.109375 C 665.582031 738.679688 665.933594 738.347656 666.34375 738.347656 C 666.753906 738.347656 667.105469 738.699219 667.105469 739.109375 L 667.105469 752.292969 C 667.105469 752.703125 666.777344 753.054688 666.34375 753.054688 Z M 666.34375 753.054688 " fill-opacity="1" fill-rule="nonzero"/><path fill="#192351" d="M 682.097656 753.054688 C 681.667969 753.054688 681.335938 752.703125 681.335938 752.292969 L 681.335938 739.109375 C 681.335938 738.679688 681.6875 738.347656 682.097656 738.347656 C 682.511719 738.347656 682.863281 738.699219 682.863281 739.109375 L 682.863281 752.292969 C 682.863281 752.703125 682.511719 753.054688 682.097656 753.054688 Z M 682.097656 753.054688 " fill-opacity="1" fill-rule="nonzero"/><path fill="#192351" d="M 697.835938 753.054688 C 697.402344 753.054688 697.074219 752.703125 697.074219 752.292969 L 697.074219 739.109375 C 697.074219 738.679688 697.421875 738.347656 697.835938 738.347656 C 698.246094 738.347656 698.597656 738.699219 698.597656 739.109375 L 698.597656 752.292969 C 698.617188 752.703125 698.265625 753.054688 697.835938 753.054688 Z M 697.835938 753.054688 " fill-opacity="1" fill-rule="nonzero"/><path fill="#192351" d="M 713.589844 753.054688 C 713.15625 753.054688 712.828125 752.703125 712.828125 752.292969 L 712.828125 739.109375 C 712.828125 738.679688 713.179688 738.347656 713.589844 738.347656 C 714.003906 738.347656 714.351562 738.699219 714.351562 739.109375 L 714.351562 752.292969 C 714.351562 752.703125 714.023438 753.054688 713.589844 753.054688 Z M 713.589844 753.054688 " fill-opacity="1" fill-rule="nonzero"/><path fill="#192351" d="M 729.347656 753.054688 C 728.914062 753.054688 728.585938 752.703125 728.585938 752.292969 L 728.585938 739.109375 C 728.585938 738.679688 728.933594 738.347656 729.347656 738.347656 C 729.757812 738.347656 730.109375 738.699219 730.109375 739.109375 L 730.109375 752.292969 C 730.109375 752.703125 729.757812 753.054688 729.347656 753.054688 Z M 729.347656 753.054688 " fill-opacity="1" fill-rule="nonzero"/><path fill="#192351" d="M 745.082031 753.054688 C 744.648438 753.054688 744.320312 752.703125 744.320312 752.292969 L 744.320312 739.109375 C 744.320312 738.679688 744.667969 738.347656 745.082031 738.347656 C 745.492188 738.347656 745.84375 738.699219 745.84375 739.109375 L 745.84375 752.292969 C 745.863281 752.703125 745.515625 753.054688 745.082031 753.054688 Z M 745.082031 753.054688 " fill-opacity="1" fill-rule="nonzero"/><path fill="#4b6fdd" d="M 776.429688 675.371094 L 776.429688 697.859375 C 776.429688 699.898438 778.097656 701.546875 780.15625 701.546875 L 892.875 701.546875 C 894.914062 701.546875 896.582031 699.878906 896.582031 697.859375 L 896.582031 675.371094 C 896.582031 673.332031 894.914062 671.683594 892.875 671.683594 L 780.15625 671.683594 C 778.074219 671.683594 776.429688 673.332031 776.429688 675.371094 Z M 776.429688 675.371094 " fill-opacity="1" fill-rule="nonzero"/><path fill="#192351" d="M 776.429688 695.863281 L 776.429688 697.859375 C 776.429688 699.898438 778.097656 701.546875 780.15625 701.546875 L 892.875 701.546875 C 894.914062 701.546875 896.582031 699.878906 896.582031 697.859375 L 896.582031 695.863281 Z M 776.429688 695.863281 " fill-opacity="1" fill-rule="nonzero"/><path fill="#192351" d="M 883.730469 693.308594 C 883.300781 693.308594 882.96875 692.957031 882.96875 692.546875 L 882.96875 679.367188 C 882.96875 678.933594 883.320312 678.601562 883.730469 678.601562 C 884.144531 678.601562 884.492188 678.953125 884.492188 679.367188 L 884.492188 692.546875 C 884.515625 692.957031 884.164062 693.308594 883.730469 693.308594 Z M 883.730469 693.308594 " fill-opacity="1" fill-rule="nonzero"/><path fill="#192351" d="M 867.996094 693.308594 C 867.5625 693.308594 867.234375 692.957031 867.234375 692.546875 L 867.234375 679.367188 C 867.234375 678.933594 867.585938 678.601562 867.996094 678.601562 C 868.410156 678.601562 868.757812 678.953125 868.757812 679.367188 L 868.757812 692.546875 C 868.757812 692.957031 868.410156 693.308594 867.996094 693.308594 Z M 867.996094 693.308594 " fill-opacity="1" fill-rule="nonzero"/><path fill="#192351" d="M 852.242188 693.308594 C 851.808594 693.308594 851.480469 692.957031 851.480469 692.546875 L 851.480469 679.367188 C 851.480469 678.933594 851.828125 678.601562 852.242188 678.601562 C 852.652344 678.601562 853.003906 678.953125 853.003906 679.367188 L 853.003906 692.546875 C 853.003906 692.957031 852.652344 693.308594 852.242188 693.308594 Z M 852.242188 693.308594 " fill-opacity="1" fill-rule="nonzero"/><path fill="#192351" d="M 836.484375 693.308594 C 836.054688 693.308594 835.722656 692.957031 835.722656 692.546875 L 835.722656 679.367188 C 835.722656 678.933594 836.074219 678.601562 836.484375 678.601562 C 836.898438 678.601562 837.246094 678.953125 837.246094 679.367188 L 837.246094 692.546875 C 837.246094 692.957031 836.917969 693.308594 836.484375 693.308594 Z M 836.484375 693.308594 " fill-opacity="1" fill-rule="nonzero"/><path fill="#192351" d="M 820.730469 693.308594 C 820.296875 693.308594 819.96875 692.957031 819.96875 692.546875 L 819.96875 679.367188 C 819.96875 678.933594 820.316406 678.601562 820.730469 678.601562 C 821.140625 678.601562 821.492188 678.953125 821.492188 679.367188 L 821.492188 692.546875 C 821.511719 692.957031 821.160156 693.308594 820.730469 693.308594 Z M 820.730469 693.308594 " fill-opacity="1" fill-rule="nonzero"/><path fill="#192351" d="M 804.996094 693.308594 C 804.5625 693.308594 804.230469 692.957031 804.230469 692.546875 L 804.230469 679.367188 C 804.230469 678.933594 804.582031 678.601562 804.996094 678.601562 C 805.40625 678.601562 805.757812 678.953125 805.757812 679.367188 L 805.757812 692.546875 C 805.757812 692.957031 805.40625 693.308594 804.996094 693.308594 Z M 804.996094 693.308594 " fill-opacity="1" fill-rule="nonzero"/><path fill="#192351" d="M 789.238281 693.308594 C 788.804688 693.308594 788.476562 692.957031 788.476562 692.546875 L 788.476562 679.367188 C 788.476562 678.933594 788.828125 678.601562 789.238281 678.601562 C 789.652344 678.601562 790 678.953125 790 679.367188 L 790 692.546875 C 790 692.957031 789.671875 693.308594 789.238281 693.308594 Z M 789.238281 693.308594 " fill-opacity="1" fill-rule="nonzero"/><path fill="#4b6fdd" d="M 758.222656 705.253906 L 758.222656 727.742188 C 758.222656 729.78125 759.890625 731.429688 761.949219 731.429688 L 874.667969 731.429688 C 876.707031 731.429688 878.378906 729.761719 878.378906 727.742188 L 878.378906 705.253906 C 878.378906 703.214844 876.707031 701.566406 874.667969 701.566406 L 761.949219 701.566406 C 759.890625 701.546875 758.222656 703.214844 758.222656 705.253906 Z M 758.222656 705.253906 " fill-opacity="1" fill-rule="nonzero"/><path fill="#192351" d="M 758.222656 725.746094 L 758.222656 727.742188 C 758.222656 729.78125 759.890625 731.429688 761.949219 731.429688 L 874.667969 731.429688 C 876.707031 731.429688 878.378906 729.761719 878.378906 727.742188 L 878.378906 725.746094 Z M 758.222656 725.746094 " fill-opacity="1" fill-rule="nonzero"/><path fill="#192351" d="M 865.546875 723.171875 C 865.113281 723.171875 864.785156 722.820312 864.785156 722.410156 L 864.785156 709.226562 C 864.785156 708.796875 865.132812 708.464844 865.546875 708.464844 C 865.957031 708.464844 866.308594 708.816406 866.308594 709.226562 L 866.308594 722.410156 C 866.308594 722.839844 865.976562 723.171875 865.546875 723.171875 Z M 865.546875 723.171875 " fill-opacity="1" fill-rule="nonzero"/><path fill="#192351" d="M 849.789062 723.171875 C 849.359375 723.171875 849.027344 722.820312 849.027344 722.410156 L 849.027344 709.226562 C 849.027344 708.796875 849.378906 708.464844 849.789062 708.464844 C 850.203125 708.464844 850.550781 708.816406 850.550781 709.226562 L 850.550781 722.410156 C 850.574219 722.839844 850.222656 723.171875 849.789062 723.171875 Z M 849.789062 723.171875 " fill-opacity="1" fill-rule="nonzero"/><path fill="#192351" d="M 834.054688 723.171875 C 833.621094 723.171875 833.292969 722.820312 833.292969 722.410156 L 833.292969 709.226562 C 833.292969 708.796875 833.644531 708.464844 834.054688 708.464844 C 834.46875 708.464844 834.816406 708.816406 834.816406 709.226562 L 834.816406 722.410156 C 834.816406 722.839844 834.46875 723.171875 834.054688 723.171875 Z M 834.054688 723.171875 " fill-opacity="1" fill-rule="nonzero"/><path fill="#192351" d="M 818.300781 723.171875 C 817.867188 723.171875 817.539062 722.820312 817.539062 722.410156 L 817.539062 709.226562 C 817.539062 708.796875 817.886719 708.464844 818.300781 708.464844 C 818.710938 708.464844 819.0625 708.816406 819.0625 709.226562 L 819.0625 722.410156 C 819.0625 722.839844 818.710938 723.171875 818.300781 723.171875 Z M 818.300781 723.171875 " fill-opacity="1" fill-rule="nonzero"/><path fill="#192351" d="M 802.542969 723.171875 C 802.109375 723.171875 801.78125 722.820312 801.78125 722.410156 L 801.78125 709.226562 C 801.78125 708.796875 802.132812 708.464844 802.542969 708.464844 C 802.957031 708.464844 803.304688 708.816406 803.304688 709.226562 L 803.304688 722.410156 C 803.324219 722.839844 802.976562 723.171875 802.542969 723.171875 Z M 802.542969 723.171875 " fill-opacity="1" fill-rule="nonzero"/><path fill="#192351" d="M 786.789062 723.171875 C 786.355469 723.171875 786.027344 722.820312 786.027344 722.410156 L 786.027344 709.226562 C 786.027344 708.796875 786.375 708.464844 786.789062 708.464844 C 787.199219 708.464844 787.550781 708.816406 787.550781 709.226562 L 787.550781 722.410156 C 787.570312 722.839844 787.21875 723.171875 786.789062 723.171875 Z M 786.789062 723.171875 " fill-opacity="1" fill-rule="nonzero"/><path fill="#192351" d="M 771.050781 723.171875 C 770.621094 723.171875 770.289062 722.820312 770.289062 722.410156 L 770.289062 709.226562 C 770.289062 708.796875 770.640625 708.464844 771.050781 708.464844 C 771.464844 708.464844 771.816406 708.816406 771.816406 709.226562 L 771.816406 722.410156 C 771.816406 722.839844 771.464844 723.171875 771.050781 723.171875 Z M 771.050781 723.171875 " fill-opacity="1" fill-rule="nonzero"/><path fill="#4b6fdd" d="M 762.03125 735.136719 L 762.03125 757.625 C 762.03125 759.664062 763.699219 761.3125 765.757812 761.3125 L 878.480469 761.3125 C 880.519531 761.3125 882.1875 759.644531 882.1875 757.625 L 882.1875 735.136719 C 882.1875 733.097656 880.519531 731.449219 878.480469 731.449219 L 765.757812 731.449219 C 763.699219 731.429688 762.03125 733.097656 762.03125 735.136719 Z M 762.03125 735.136719 " fill-opacity="1" fill-rule="nonzero"/><path fill="#192351" d="M 762.03125 755.609375 L 762.03125 757.605469 C 762.03125 759.644531 763.699219 761.292969 765.757812 761.292969 L 878.480469 761.292969 C 880.519531 761.292969 882.1875 759.625 882.1875 757.605469 L 882.1875 755.609375 Z M 762.03125 755.609375 " fill-opacity="1" fill-rule="nonzero"/><path fill="#192351" d="M 869.355469 753.054688 C 868.921875 753.054688 868.59375 752.703125 868.59375 752.292969 L 868.59375 739.109375 C 868.59375 738.679688 868.945312 738.347656 869.355469 738.347656 C 869.769531 738.347656 870.117188 738.699219 870.117188 739.109375 L 870.117188 752.292969 C 870.117188 752.703125 869.769531 753.054688 869.355469 753.054688 Z M 869.355469 753.054688 " fill-opacity="1" fill-rule="nonzero"/><path fill="#192351" d="M 853.601562 753.054688 C 853.167969 753.054688 852.839844 752.703125 852.839844 752.292969 L 852.839844 739.109375 C 852.839844 738.679688 853.1875 738.347656 853.601562 738.347656 C 854.011719 738.347656 854.363281 738.699219 854.363281 739.109375 L 854.363281 752.292969 C 854.363281 752.703125 854.03125 753.054688 853.601562 753.054688 Z M 853.601562 753.054688 " fill-opacity="1" fill-rule="nonzero"/><path fill="#192351" d="M 837.84375 753.054688 C 837.410156 753.054688 837.082031 752.703125 837.082031 752.292969 L 837.082031 739.109375 C 837.082031 738.679688 837.433594 738.347656 837.84375 738.347656 C 838.257812 738.347656 838.605469 738.699219 838.605469 739.109375 L 838.605469 752.292969 C 838.628906 752.703125 838.277344 753.054688 837.84375 753.054688 Z M 837.84375 753.054688 " fill-opacity="1" fill-rule="nonzero"/><path fill="#192351" d="M 822.109375 753.054688 C 821.675781 753.054688 821.347656 752.703125 821.347656 752.292969 L 821.347656 739.109375 C 821.347656 738.679688 821.699219 738.347656 822.109375 738.347656 C 822.519531 738.347656 822.871094 738.699219 822.871094 739.109375 L 822.871094 752.292969 C 822.871094 752.703125 822.519531 753.054688 822.109375 753.054688 Z M 822.109375 753.054688 " fill-opacity="1" fill-rule="nonzero"/><path fill="#192351" d="M 806.355469 753.054688 C 805.921875 753.054688 805.589844 752.703125 805.589844 752.292969 L 805.589844 739.109375 C 805.589844 738.679688 805.941406 738.347656 806.355469 738.347656 C 806.765625 738.347656 807.117188 738.699219 807.117188 739.109375 L 807.117188 752.292969 C 807.117188 752.703125 806.765625 753.054688 806.355469 753.054688 Z M 806.355469 753.054688 " fill-opacity="1" fill-rule="nonzero"/><path fill="#192351" d="M 790.597656 753.054688 C 790.164062 753.054688 789.835938 752.703125 789.835938 752.292969 L 789.835938 739.109375 C 789.835938 738.679688 790.1875 738.347656 790.597656 738.347656 C 791.011719 738.347656 791.359375 738.699219 791.359375 739.109375 L 791.359375 752.292969 C 791.378906 752.703125 791.03125 753.054688 790.597656 753.054688 Z M 790.597656 753.054688 " fill-opacity="1" fill-rule="nonzero"/><path fill="#192351" d="M 774.84375 753.054688 C 774.410156 753.054688 774.082031 752.703125 774.082031 752.292969 L 774.082031 739.109375 C 774.082031 738.679688 774.429688 738.347656 774.84375 738.347656 C 775.253906 738.347656 775.605469 738.699219 775.605469 739.109375 L 775.605469 752.292969 C 775.625 752.703125 775.273438 753.054688 774.84375 753.054688 Z M 774.84375 753.054688 " fill-opacity="1" fill-rule="nonzero"/><path fill="#4b6fdd" d="M 1067.199219 294.175781 L 1072.167969 299.144531 L 1049.59375 321.714844 L 1044.628906 316.75 Z M 1067.199219 294.175781 " fill-opacity="1" fill-rule="nonzero"/><path fill="#4b6fdd" d="M 1072.1875 316.761719 L 1067.21875 321.730469 L 1044.644531 299.15625 L 1049.613281 294.191406 Z M 1072.1875 316.761719 " fill-opacity="1" fill-rule="nonzero"/><path fill="#dae4fe" d="M 1087.230469 196.207031 L 1090.625 199.601562 L 1075.160156 215.066406 L 1071.765625 211.671875 Z M 1087.230469 196.207031 " fill-opacity="1" fill-rule="nonzero"/><path fill="#dae4fe" d="M 1090.636719 211.6875 L 1087.242188 215.082031 L 1071.777344 199.617188 L 1075.171875 196.222656 Z M 1090.636719 211.6875 " fill-opacity="1" fill-rule="nonzero"/></svg>