<svg xmlns="http://www.w3.org/2000/svg" xmlns:xlink="http://www.w3.org/1999/xlink" width="1920" zoomAndPan="magnify" viewBox="0 0 1440 809.999993" height="1080" preserveAspectRatio="xMidYMid meet" version="1.0"><path fill="#ffffff" d="M 872.527344 412.589844 L 858.492188 412.589844 L 858.492188 556.488281 C 858.433594 557.457031 858.277344 558.414062 858.03125 559.355469 C 857.785156 560.292969 857.449219 561.203125 857.023438 562.078125 C 856.601562 562.949219 856.09375 563.777344 855.507812 564.550781 C 854.921875 565.328125 854.269531 566.039062 853.542969 566.6875 C 852.820312 567.335938 852.039062 567.90625 851.199219 568.402344 C 850.363281 568.894531 849.488281 569.304688 848.570312 569.628906 C 847.65625 569.953125 846.714844 570.183594 845.753906 570.324219 C 844.792969 570.464844 843.824219 570.507812 842.855469 570.460938 L 759.953125 570.460938 L 759.953125 472.34375 C 759.953125 471.671875 759.886719 471.003906 759.757812 470.34375 C 759.625 469.683594 759.429688 469.042969 759.171875 468.421875 C 758.914062 467.800781 758.601562 467.207031 758.226562 466.648438 C 757.851562 466.089844 757.429688 465.570312 756.953125 465.097656 C 756.476562 464.621094 755.957031 464.195312 755.398438 463.820312 C 754.839844 463.445312 754.25 463.132812 753.628906 462.875 C 753.007812 462.617188 752.367188 462.421875 751.707031 462.289062 C 751.046875 462.15625 750.378906 462.089844 749.707031 462.089844 L 689.558594 462.089844 C 688.886719 462.089844 688.21875 462.15625 687.558594 462.289062 C 686.898438 462.417969 686.257812 462.613281 685.636719 462.871094 C 685.015625 463.128906 684.425781 463.445312 683.863281 463.820312 C 683.304688 464.191406 682.789062 464.617188 682.3125 465.09375 C 681.835938 465.570312 681.410156 466.089844 681.039062 466.648438 C 680.664062 467.207031 680.347656 467.796875 680.089844 468.421875 C 679.832031 469.042969 679.640625 469.683594 679.507812 470.34375 C 679.378906 471.003906 679.3125 471.671875 679.3125 472.34375 L 679.3125 570.453125 L 596.40625 570.453125 C 595.4375 570.507812 594.472656 570.464844 593.515625 570.324219 C 592.554688 570.1875 591.621094 569.957031 590.703125 569.636719 C 589.789062 569.316406 588.917969 568.910156 588.082031 568.414062 C 587.25 567.921875 586.46875 567.351562 585.746094 566.707031 C 585.023438 566.0625 584.371094 565.351562 583.789062 564.578125 C 583.203125 563.804688 582.703125 562.980469 582.28125 562.109375 C 581.859375 561.238281 581.523438 560.332031 581.28125 559.394531 C 581.035156 558.457031 580.886719 557.503906 580.828125 556.539062 L 580.828125 412.589844 L 566.734375 412.589844 C 551.113281 412.589844 542.648438 397.878906 552.882812 388.441406 L 707.128906 245.847656 C 708.09375 245.03125 709.121094 244.304688 710.214844 243.667969 C 711.308594 243.035156 712.449219 242.5 713.636719 242.066406 C 714.824219 241.632812 716.039062 241.304688 717.285156 241.085938 C 718.53125 240.867188 719.785156 240.757812 721.050781 240.761719 C 722.3125 240.765625 723.566406 240.878906 724.8125 241.101562 C 726.054688 241.324219 727.269531 241.65625 728.457031 242.09375 C 729.644531 242.535156 730.78125 243.074219 731.871094 243.710938 C 732.960938 244.351562 733.988281 245.082031 734.949219 245.902344 C 785.445312 293.433594 835.964844 340.960938 886.503906 388.492188 C 896.546875 398.019531 888.09375 412.589844 872.527344 412.589844 Z M 872.527344 412.589844 " fill-opacity="1" fill-rule="nonzero"/></svg>