<svg xmlns="http://www.w3.org/2000/svg" xmlns:xlink="http://www.w3.org/1999/xlink" width="1920" zoomAndPan="magnify" viewBox="0 0 1440 809.999993" height="1080" preserveAspectRatio="xMidYMid meet" version="1.0"><defs><clipPath id="2761183847"><path d="M 553.921875 238.921875 L 886 238.921875 L 886 571 L 553.921875 571 Z M 553.921875 238.921875 " clip-rule="nonzero"/></clipPath></defs><g clip-path="url(#2761183847)"><path fill="#ffffff" d="M 873.96875 430.96875 C 880.488281 430.96875 885.820312 425.640625 885.820312 419.121094 L 885.820312 390.472656 C 885.820312 383.957031 880.488281 378.625 873.96875 378.625 L 861.667969 378.625 C 855.152344 378.625 848.257812 373.527344 846.335938 367.296875 L 835.839844 341.8125 C 832.757812 336.070312 834.007812 327.601562 838.613281 322.996094 L 847.320312 314.289062 C 851.925781 309.679688 851.929688 302.140625 847.320312 297.53125 L 827.0625 277.277344 C 822.453125 272.667969 814.914062 272.667969 810.304688 277.277344 L 801.597656 285.984375 C 796.988281 290.59375 788.515625 291.835938 782.777344 288.753906 L 757.292969 278.257812 C 751.066406 276.34375 745.96875 269.445312 745.96875 262.925781 L 745.96875 250.625 C 745.96875 244.109375 740.640625 238.777344 734.121094 238.777344 L 705.472656 238.777344 C 698.957031 238.777344 693.625 244.109375 693.625 250.625 L 693.625 262.925781 C 693.625 269.445312 688.527344 276.34375 682.300781 278.257812 L 656.816406 288.753906 C 651.074219 291.835938 642.605469 290.589844 638 285.980469 L 629.292969 277.273438 C 624.683594 272.664062 617.144531 272.664062 612.535156 277.273438 L 592.28125 297.527344 C 587.671875 302.136719 587.671875 309.675781 592.28125 314.285156 L 600.992188 322.992188 C 605.601562 327.601562 606.84375 336.070312 603.765625 341.8125 L 593.265625 367.296875 C 591.351562 373.527344 584.453125 378.621094 577.933594 378.621094 L 565.636719 378.621094 C 559.121094 378.621094 553.789062 383.953125 553.789062 390.46875 L 553.789062 419.121094 C 553.789062 425.640625 559.121094 430.96875 565.636719 430.96875 L 577.933594 430.96875 C 584.453125 430.96875 591.351562 436.066406 593.265625 442.292969 L 603.769531 467.78125 C 606.851562 473.519531 605.605469 481.992188 600.996094 486.597656 L 592.285156 495.308594 C 587.675781 499.914062 587.675781 507.453125 592.285156 512.0625 L 612.535156 532.320312 C 617.144531 536.929688 624.683594 536.925781 629.292969 532.320312 L 638.003906 523.609375 C 642.613281 519.003906 651.082031 517.753906 656.820312 520.839844 L 682.304688 531.335938 C 688.535156 533.253906 693.628906 540.148438 693.628906 546.667969 L 693.628906 558.96875 C 693.628906 565.488281 698.960938 570.820312 705.476562 570.820312 L 734.125 570.820312 C 740.644531 570.820312 745.972656 565.488281 745.972656 558.96875 L 745.972656 546.664062 C 745.972656 540.148438 751.070312 533.253906 757.296875 531.332031 L 782.78125 520.839844 C 788.519531 517.753906 796.992188 519 801.597656 523.609375 L 810.3125 532.320312 C 814.917969 536.929688 822.460938 536.925781 827.066406 532.320312 L 847.324219 512.0625 C 851.929688 507.457031 851.933594 499.914062 847.324219 495.304688 L 838.617188 486.597656 C 834.007812 481.988281 832.761719 473.515625 835.84375 467.777344 L 846.335938 442.292969 C 848.253906 436.066406 855.152344 430.96875 861.671875 430.96875 Z M 719.796875 473.097656 C 682.078125 473.097656 651.496094 442.519531 651.496094 404.796875 C 651.496094 367.074219 682.078125 336.492188 719.796875 336.492188 C 757.519531 336.492188 788.101562 367.074219 788.101562 404.796875 C 788.101562 442.519531 757.519531 473.097656 719.796875 473.097656 Z M 719.796875 473.097656 " fill-opacity="1" fill-rule="nonzero"/></g></svg>