<svg xmlns="http://www.w3.org/2000/svg" xmlns:xlink="http://www.w3.org/1999/xlink" width="1920" zoomAndPan="magnify" viewBox="0 0 1440 809.999993" height="1080" preserveAspectRatio="xMidYMid meet" version="1.0"><defs><clipPath id="5dbdc55e28"><path d="M 571.570312 429 L 868.570312 429 L 868.570312 571 L 571.570312 571 Z M 571.570312 429 " clip-rule="nonzero"/></clipPath></defs><g clip-path="url(#5dbdc55e28)"><path fill="#ffffff" d="M 766.621094 429.25 L 673.375 429.25 C 671.707031 429.253906 670.042969 429.292969 668.378906 429.378906 C 666.714844 429.460938 665.054688 429.585938 663.398438 429.75 C 661.742188 429.914062 660.089844 430.121094 658.441406 430.367188 C 656.792969 430.613281 655.152344 430.898438 653.519531 431.222656 C 651.886719 431.550781 650.261719 431.914062 648.648438 432.320312 C 647.03125 432.726562 645.425781 433.171875 643.832031 433.65625 C 642.238281 434.140625 640.660156 434.664062 639.089844 435.226562 C 637.523438 435.789062 635.96875 436.390625 634.429688 437.027344 C 632.890625 437.664062 631.371094 438.339844 629.863281 439.054688 C 628.359375 439.765625 626.871094 440.515625 625.402344 441.300781 C 623.933594 442.089844 622.488281 442.910156 621.058594 443.765625 C 619.628906 444.621094 618.222656 445.515625 616.839844 446.441406 C 615.453125 447.367188 614.09375 448.324219 612.753906 449.316406 C 611.417969 450.308594 610.105469 451.335938 608.816406 452.390625 C 607.53125 453.449219 606.269531 454.535156 605.035156 455.65625 C 603.800781 456.773438 602.59375 457.921875 601.417969 459.097656 C 600.238281 460.277344 599.089844 461.484375 597.972656 462.71875 C 596.855469 463.949219 595.765625 465.210938 594.710938 466.5 C 593.652344 467.785156 592.628906 469.097656 591.636719 470.4375 C 590.644531 471.773438 589.683594 473.136719 588.757812 474.519531 C 587.832031 475.90625 586.941406 477.3125 586.085938 478.738281 C 585.226562 480.167969 584.40625 481.617188 583.621094 483.085938 C 582.835938 484.554688 582.085938 486.042969 581.371094 487.546875 C 580.660156 489.050781 579.984375 490.574219 579.347656 492.113281 C 578.707031 493.652344 578.109375 495.203125 577.546875 496.773438 C 576.984375 498.339844 576.460938 499.921875 575.976562 501.515625 C 575.492188 503.109375 575.046875 504.714844 574.640625 506.328125 C 574.234375 507.945312 573.867188 509.566406 573.542969 511.203125 C 573.214844 512.835938 572.929688 514.476562 572.683594 516.121094 C 572.4375 517.769531 572.234375 519.421875 572.070312 521.082031 C 571.902344 522.738281 571.78125 524.398438 571.695312 526.0625 C 571.613281 527.726562 571.570312 529.390625 571.570312 531.054688 L 571.570312 562.15625 C 571.570312 562.730469 571.625 563.296875 571.738281 563.859375 C 571.847656 564.421875 572.015625 564.96875 572.234375 565.496094 C 572.453125 566.027344 572.722656 566.53125 573.039062 567.007812 C 573.359375 567.484375 573.71875 567.925781 574.125 568.328125 C 574.53125 568.734375 574.972656 569.097656 575.449219 569.414062 C 575.925781 569.734375 576.429688 570.003906 576.957031 570.222656 C 577.488281 570.441406 578.035156 570.609375 578.597656 570.71875 C 579.160156 570.832031 579.726562 570.886719 580.300781 570.886719 L 859.695312 570.886719 C 860.269531 570.886719 860.839844 570.832031 861.398438 570.71875 C 861.960938 570.609375 862.507812 570.441406 863.039062 570.222656 C 863.566406 570.003906 864.070312 569.734375 864.546875 569.414062 C 865.023438 569.097656 865.464844 568.734375 865.871094 568.328125 C 866.277344 567.925781 866.636719 567.484375 866.957031 567.007812 C 867.273438 566.53125 867.542969 566.027344 867.761719 565.496094 C 867.984375 564.96875 868.148438 564.421875 868.261719 563.859375 C 868.371094 563.296875 868.429688 562.730469 868.429688 562.15625 L 868.429688 531.054688 C 868.425781 529.390625 868.382812 527.726562 868.300781 526.0625 C 868.21875 524.398438 868.09375 522.738281 867.929688 521.082031 C 867.761719 519.421875 867.558594 517.769531 867.3125 516.121094 C 867.066406 514.476562 866.78125 512.835938 866.453125 511.203125 C 866.128906 509.566406 865.761719 507.945312 865.355469 506.328125 C 864.949219 504.710938 864.503906 503.109375 864.019531 501.515625 C 863.535156 499.921875 863.011719 498.339844 862.449219 496.773438 C 861.890625 495.203125 861.289062 493.652344 860.652344 492.113281 C 860.011719 490.574219 859.335938 489.050781 858.625 487.546875 C 857.910156 486.042969 857.160156 484.554688 856.375 483.085938 C 855.589844 481.617188 854.769531 480.167969 853.914062 478.738281 C 853.054688 477.3125 852.164062 475.90625 851.238281 474.519531 C 850.3125 473.136719 849.355469 471.773438 848.359375 470.4375 C 847.367188 469.097656 846.34375 467.785156 845.289062 466.5 C 844.230469 465.210938 843.144531 463.949219 842.023438 462.71875 C 840.90625 461.484375 839.757812 460.277344 838.578125 459.097656 C 837.402344 457.921875 836.195312 456.773438 834.960938 455.65625 C 833.726562 454.535156 832.464844 453.449219 831.179688 452.390625 C 829.890625 451.335938 828.578125 450.308594 827.242188 449.316406 C 825.902344 448.324219 824.542969 447.367188 823.15625 446.441406 C 821.773438 445.515625 820.367188 444.621094 818.9375 443.765625 C 817.511719 442.910156 816.0625 442.089844 814.59375 441.300781 C 813.125 440.515625 811.636719 439.765625 810.132812 439.054688 C 808.625 438.339844 807.105469 437.664062 805.566406 437.027344 C 804.027344 436.390625 802.472656 435.789062 800.90625 435.226562 C 799.339844 434.664062 797.757812 434.140625 796.164062 433.65625 C 794.570312 433.171875 792.964844 432.726562 791.351562 432.320312 C 789.734375 431.917969 788.109375 431.550781 786.476562 431.222656 C 784.84375 430.898438 783.203125 430.613281 781.554688 430.367188 C 779.90625 430.121094 778.253906 429.914062 776.597656 429.75 C 774.941406 429.585938 773.28125 429.460938 771.617188 429.378906 C 769.953125 429.292969 768.289062 429.253906 766.621094 429.25 Z M 766.621094 429.25 " fill-opacity="1" fill-rule="nonzero"/></g><path fill="#ffffff" d="M 798.578125 317.683594 C 798.578125 318.96875 798.546875 320.253906 798.484375 321.539062 C 798.421875 322.824219 798.328125 324.105469 798.199219 325.386719 C 798.074219 326.664062 797.917969 327.941406 797.726562 329.214844 C 797.539062 330.484375 797.320312 331.753906 797.070312 333.015625 C 796.816406 334.273438 796.535156 335.53125 796.222656 336.777344 C 795.910156 338.023438 795.570312 339.261719 795.195312 340.496094 C 794.820312 341.726562 794.417969 342.945312 793.984375 344.15625 C 793.550781 345.367188 793.089844 346.566406 792.597656 347.753906 C 792.105469 348.941406 791.585938 350.117188 791.035156 351.28125 C 790.484375 352.445312 789.90625 353.59375 789.300781 354.726562 C 788.695312 355.859375 788.058594 356.980469 787.398438 358.082031 C 786.738281 359.183594 786.050781 360.269531 785.335938 361.339844 C 784.621094 362.410156 783.878906 363.460938 783.113281 364.492188 C 782.347656 365.527344 781.558594 366.539062 780.742188 367.535156 C 779.925781 368.527344 779.085938 369.503906 778.222656 370.453125 C 777.359375 371.40625 776.472656 372.339844 775.5625 373.25 C 774.652344 374.15625 773.722656 375.042969 772.769531 375.90625 C 771.816406 376.773438 770.84375 377.609375 769.847656 378.425781 C 768.855469 379.242188 767.839844 380.035156 766.808594 380.800781 C 765.777344 381.566406 764.726562 382.304688 763.65625 383.019531 C 762.585938 383.734375 761.5 384.421875 760.398438 385.085938 C 759.292969 385.746094 758.175781 386.378906 757.039062 386.984375 C 755.90625 387.589844 754.757812 388.167969 753.597656 388.71875 C 752.433594 389.269531 751.257812 389.789062 750.070312 390.28125 C 748.882812 390.773438 747.683594 391.238281 746.472656 391.671875 C 745.261719 392.105469 744.039062 392.507812 742.808594 392.878906 C 741.578125 393.253906 740.339844 393.597656 739.09375 393.910156 C 737.84375 394.222656 736.589844 394.503906 735.328125 394.753906 C 734.066406 395.003906 732.800781 395.226562 731.527344 395.414062 C 730.257812 395.601562 728.980469 395.757812 727.699219 395.886719 C 726.421875 396.011719 725.136719 396.105469 723.855469 396.167969 C 722.570312 396.234375 721.285156 396.265625 720 396.265625 C 718.710938 396.265625 717.425781 396.234375 716.144531 396.167969 C 714.859375 396.105469 713.574219 396.011719 712.296875 395.886719 C 711.015625 395.757812 709.742188 395.601562 708.46875 395.414062 C 707.195312 395.226562 705.929688 395.003906 704.667969 394.753906 C 703.40625 394.503906 702.152344 394.222656 700.90625 393.910156 C 699.65625 393.597656 698.417969 393.253906 697.1875 392.878906 C 695.957031 392.507812 694.734375 392.105469 693.527344 391.671875 C 692.316406 391.238281 691.113281 390.773438 689.925781 390.28125 C 688.738281 389.789062 687.5625 389.269531 686.402344 388.71875 C 685.238281 388.167969 684.089844 387.589844 682.957031 386.984375 C 681.820312 386.378906 680.703125 385.746094 679.601562 385.085938 C 678.496094 384.421875 677.410156 383.734375 676.339844 383.019531 C 675.273438 382.304688 674.222656 381.566406 673.1875 380.800781 C 672.15625 380.035156 671.140625 379.242188 670.148438 378.425781 C 669.152344 377.609375 668.179688 376.773438 667.226562 375.90625 C 666.273438 375.042969 665.34375 374.15625 664.433594 373.25 C 663.523438 372.339844 662.636719 371.40625 661.773438 370.453125 C 660.910156 369.503906 660.070312 368.527344 659.253906 367.535156 C 658.4375 366.539062 657.648438 365.527344 656.882812 364.492188 C 656.117188 363.460938 655.375 362.410156 654.660156 361.339844 C 653.945312 360.269531 653.257812 359.183594 652.597656 358.082031 C 651.9375 356.980469 651.304688 355.859375 650.695312 354.726562 C 650.089844 353.59375 649.511719 352.445312 648.960938 351.28125 C 648.414062 350.117188 647.890625 348.941406 647.398438 347.753906 C 646.90625 346.566406 646.445312 345.367188 646.011719 344.15625 C 645.578125 342.945312 645.175781 341.726562 644.800781 340.496094 C 644.429688 339.261719 644.085938 338.023438 643.773438 336.777344 C 643.460938 335.53125 643.179688 334.273438 642.929688 333.015625 C 642.675781 331.753906 642.457031 330.484375 642.269531 329.214844 C 642.078125 327.941406 641.921875 326.664062 641.796875 325.386719 C 641.671875 324.105469 641.574219 322.824219 641.511719 321.539062 C 641.449219 320.253906 641.417969 318.96875 641.417969 317.683594 C 641.417969 316.398438 641.449219 315.113281 641.511719 313.828125 C 641.574219 312.542969 641.671875 311.261719 641.796875 309.980469 C 641.921875 308.703125 642.078125 307.425781 642.269531 306.152344 C 642.457031 304.882812 642.675781 303.613281 642.929688 302.351562 C 643.179688 301.09375 643.460938 299.835938 643.773438 298.589844 C 644.085938 297.34375 644.429688 296.105469 644.800781 294.871094 C 645.175781 293.640625 645.578125 292.421875 646.011719 291.210938 C 646.445312 290 646.90625 288.800781 647.398438 287.613281 C 647.890625 286.425781 648.414062 285.25 648.960938 284.085938 C 649.511719 282.921875 650.089844 281.773438 650.695312 280.640625 C 651.304688 279.507812 651.9375 278.386719 652.597656 277.285156 C 653.257812 276.183594 653.945312 275.097656 654.660156 274.027344 C 655.375 272.957031 656.117188 271.90625 656.882812 270.875 C 657.648438 269.839844 658.4375 268.828125 659.253906 267.832031 C 660.070312 266.839844 660.910156 265.863281 661.773438 264.914062 C 662.636719 263.960938 663.523438 263.027344 664.433594 262.117188 C 665.34375 261.210938 666.273438 260.324219 667.226562 259.460938 C 668.179688 258.597656 669.152344 257.757812 670.148438 256.941406 C 671.140625 256.125 672.15625 255.332031 673.1875 254.566406 C 674.222656 253.800781 675.273438 253.0625 676.339844 252.347656 C 677.410156 251.632812 678.496094 250.945312 679.601562 250.28125 C 680.703125 249.621094 681.820312 248.988281 682.957031 248.382812 C 684.089844 247.777344 685.238281 247.199219 686.402344 246.648438 C 687.5625 246.097656 688.738281 245.578125 689.925781 245.085938 C 691.113281 244.59375 692.316406 244.128906 693.527344 243.695312 C 694.734375 243.261719 695.957031 242.859375 697.1875 242.488281 C 698.417969 242.113281 699.65625 241.769531 700.90625 241.457031 C 702.152344 241.144531 703.40625 240.863281 704.667969 240.613281 C 705.929688 240.363281 707.195312 240.140625 708.46875 239.953125 C 709.742188 239.765625 711.015625 239.609375 712.296875 239.480469 C 713.574219 239.355469 714.859375 239.261719 716.144531 239.199219 C 717.425781 239.132812 718.710938 239.101562 720 239.101562 C 721.285156 239.101562 722.570312 239.132812 723.855469 239.199219 C 725.136719 239.261719 726.421875 239.355469 727.699219 239.480469 C 728.980469 239.609375 730.257812 239.765625 731.527344 239.953125 C 732.800781 240.140625 734.066406 240.363281 735.328125 240.613281 C 736.589844 240.863281 737.84375 241.144531 739.09375 241.457031 C 740.339844 241.769531 741.578125 242.113281 742.808594 242.488281 C 744.039062 242.859375 745.261719 243.261719 746.472656 243.695312 C 747.683594 244.128906 748.882812 244.59375 750.070312 245.085938 C 751.257812 245.578125 752.433594 246.097656 753.597656 246.648438 C 754.757812 247.199219 755.90625 247.777344 757.039062 248.382812 C 758.175781 248.988281 759.292969 249.621094 760.398438 250.28125 C 761.5 250.945312 762.585938 251.632812 763.65625 252.347656 C 764.726562 253.0625 765.777344 253.800781 766.808594 254.566406 C 767.839844 255.332031 768.855469 256.125 769.847656 256.941406 C 770.84375 257.757812 771.816406 258.597656 772.769531 259.460938 C 773.722656 260.324219 774.652344 261.210938 775.5625 262.117188 C 776.472656 263.027344 777.359375 263.960938 778.222656 264.914062 C 779.085938 265.863281 779.925781 266.839844 780.742188 267.832031 C 781.558594 268.828125 782.347656 269.839844 783.113281 270.875 C 783.878906 271.90625 784.621094 272.957031 785.335938 274.027344 C 786.050781 275.097656 786.738281 276.183594 787.398438 277.285156 C 788.058594 278.386719 788.695312 279.507812 789.300781 280.640625 C 789.90625 281.773438 790.484375 282.921875 791.035156 284.085938 C 791.585938 285.25 792.105469 286.425781 792.597656 287.613281 C 793.089844 288.800781 793.550781 290 793.984375 291.210938 C 794.417969 292.421875 794.820312 293.640625 795.195312 294.871094 C 795.570312 296.105469 795.910156 297.34375 796.222656 298.589844 C 796.535156 299.835938 796.816406 301.09375 797.070312 302.351562 C 797.320312 303.613281 797.539062 304.882812 797.726562 306.152344 C 797.917969 307.425781 798.074219 308.703125 798.199219 309.980469 C 798.328125 311.261719 798.421875 312.542969 798.484375 313.828125 C 798.546875 315.113281 798.578125 316.398438 798.578125 317.683594 Z M 798.578125 317.683594 " fill-opacity="1" fill-rule="nonzero"/></svg>