<svg xmlns="http://www.w3.org/2000/svg" xmlns:xlink="http://www.w3.org/1999/xlink" width="1920" zoomAndPan="magnify" viewBox="0 0 1440 809.999993" height="1080" preserveAspectRatio="xMidYMid meet" version="1.0"><defs><clipPath id="94f796dc03"><path d="M 373.109375 58.109375 L 1066.859375 58.109375 L 1066.859375 751.859375 L 373.109375 751.859375 Z M 373.109375 58.109375 " clip-rule="nonzero"/></clipPath></defs><g clip-path="url(#94f796dc03)"><path fill="#000000" d="M 719.984375 751.859375 C 529.144531 751.859375 373.109375 595.820312 373.109375 404.984375 C 373.109375 214.144531 529.144531 58.109375 719.984375 58.109375 C 910.820312 58.109375 1066.859375 214.144531 1066.859375 404.984375 C 1066.859375 595.820312 910.820312 751.859375 719.984375 751.859375 Z M 719.984375 103.011719 C 553.84375 103.011719 418.011719 238.84375 418.011719 404.984375 C 418.011719 571.125 553.84375 706.953125 719.984375 706.953125 C 886.125 706.953125 1021.953125 571.125 1021.953125 404.984375 C 1021.953125 238.84375 886.125 103.011719 719.984375 103.011719 Z M 719.984375 103.011719 " fill-opacity="1" fill-rule="nonzero"/></g><path fill="#000000" d="M 621.195312 242.210938 C 613.339844 226.492188 606.601562 225.371094 598.746094 225.371094 L 579.660156 225.371094 C 572.925781 225.371094 562.824219 227.617188 553.84375 237.71875 C 544.863281 247.824219 520.164062 271.398438 520.164062 318.542969 C 520.164062 365.691406 554.964844 412.839844 559.453125 419.578125 C 563.945312 426.3125 626.808594 527.34375 725.59375 566.632812 C 807.542969 599.1875 824.382812 592.453125 842.34375 591.328125 C 860.304688 590.207031 899.59375 567.753906 908.574219 545.304688 C 917.554688 522.851562 916.433594 502.648438 914.1875 499.277344 C 911.941406 494.789062 905.207031 492.542969 895.105469 488.054688 C 885 483.5625 837.851562 459.988281 828.871094 456.621094 C 819.890625 453.253906 813.15625 452.132812 806.421875 461.113281 C 799.683594 471.214844 781.722656 492.542969 776.109375 499.277344 C 770.5 506.015625 764.886719 507.136719 754.78125 501.523438 C 744.679688 497.035156 713.246094 485.808594 676.203125 453.253906 C 647.015625 427.433594 627.933594 396.003906 622.320312 385.898438 C 616.707031 375.796875 621.195312 371.304688 626.808594 365.691406 C 631.300781 361.203125 636.914062 354.46875 641.402344 348.855469 C 645.894531 343.242188 648.136719 338.75 651.503906 333.136719 C 654.875 327.523438 652.628906 320.789062 650.382812 316.300781 C 648.136719 311.808594 630.175781 261.292969 621.195312 242.210938 " fill-opacity="1" fill-rule="evenodd"/></svg>