<svg xmlns="http://www.w3.org/2000/svg" xmlns:xlink="http://www.w3.org/1999/xlink" width="1920" zoomAndPan="magnify" viewBox="0 0 1440 809.999993" height="1080" preserveAspectRatio="xMidYMid meet" version="1.0"><defs><clipPath id="70694a9276"><path d="M 373.109375 58.109375 L 1066.859375 58.109375 L 1066.859375 750 L 373.109375 750 Z M 373.109375 58.109375 " clip-rule="nonzero"/></clipPath><clipPath id="4c502f1327"><path d="M 564 186 L 882 186 L 882 751.859375 L 564 751.859375 Z M 564 186 " clip-rule="nonzero"/></clipPath></defs><g clip-path="url(#70694a9276)"><path fill="#010001" d="M 1066.972656 405.058594 C 1066.972656 213.429688 911.652344 58.109375 720.058594 58.109375 C 528.460938 58.109375 373.109375 213.429688 373.109375 405.058594 C 373.109375 567.757812 485.113281 704.300781 636.230469 741.792969 L 636.230469 511.085938 L 564.675781 511.085938 L 564.675781 405.058594 L 636.230469 405.058594 L 636.230469 359.375 C 636.230469 241.296875 689.664062 186.554688 805.59375 186.554688 C 827.578125 186.554688 865.507812 190.851562 881.011719 195.179688 L 881.011719 291.277344 C 872.824219 290.402344 858.59375 289.96875 840.9375 289.96875 C 784.046875 289.96875 762.0625 311.515625 762.0625 367.535156 L 762.0625 405.027344 L 875.378906 405.027344 L 855.914062 511.054688 L 762.0625 511.054688 L 762.0625 749.421875 C 933.855469 728.683594 1066.972656 582.394531 1066.972656 405.027344 Z M 1066.972656 405.058594 " fill-opacity="1" fill-rule="nonzero"/></g><g clip-path="url(#4c502f1327)"><path fill="#ffffff" d="M 855.945312 511.054688 L 875.410156 405.027344 L 762.09375 405.027344 L 762.09375 367.535156 C 762.09375 311.515625 784.078125 289.96875 840.96875 289.96875 C 858.625 289.96875 872.855469 290.402344 881.042969 291.277344 L 881.042969 195.179688 C 865.539062 190.882812 827.609375 186.554688 805.625 186.554688 C 689.695312 186.554688 636.261719 241.296875 636.261719 359.375 L 636.261719 405.058594 L 564.703125 405.058594 L 564.703125 511.085938 L 636.261719 511.085938 L 636.261719 741.792969 C 663.105469 748.457031 691.160156 752.007812 720.085938 752.007812 C 734.316406 752.007812 748.332031 751.132812 762.125 749.453125 L 762.125 511.085938 L 855.976562 511.085938 Z M 855.945312 511.054688 " fill-opacity="1" fill-rule="nonzero"/></g></svg>