<svg xmlns="http://www.w3.org/2000/svg" xmlns:xlink="http://www.w3.org/1999/xlink" width="1920" zoomAndPan="magnify" viewBox="0 0 1440 809.999993" height="1080" preserveAspectRatio="xMidYMid meet" version="1.0"><defs><clipPath id="079a7117e3"><path d="M 373.109375 58.109375 L 1066.859375 58.109375 L 1066.859375 751.859375 L 373.109375 751.859375 Z M 373.109375 58.109375 " clip-rule="nonzero"/></clipPath></defs><path fill="#000000" d="M 719.984375 220.828125 C 618.433594 220.828125 535.816406 303.417969 535.816406 404.96875 C 535.816406 506.519531 618.433594 589.140625 719.984375 589.140625 C 821.535156 589.140625 904.15625 506.519531 904.15625 404.96875 C 904.15625 303.417969 821.535156 220.828125 719.984375 220.828125 Z M 719.984375 524.152344 C 654.285156 524.152344 600.832031 470.675781 600.832031 404.96875 C 600.832031 339.257812 654.285156 285.8125 719.984375 285.8125 C 785.6875 285.8125 839.140625 339.257812 839.140625 404.96875 C 839.140625 470.675781 785.6875 524.152344 719.984375 524.152344 Z M 719.984375 524.152344 " fill-opacity="1" fill-rule="nonzero"/><path fill="#000000" d="M 911.074219 176.644531 C 890.523438 176.644531 873.855469 193.324219 873.855469 213.871094 C 873.855469 234.445312 890.523438 251.097656 911.074219 251.097656 C 931.628906 251.097656 948.296875 234.445312 948.296875 213.871094 C 948.296875 193.324219 931.628906 176.644531 911.074219 176.644531 Z M 911.074219 176.644531 " fill-opacity="1" fill-rule="nonzero"/><g clip-path="url(#079a7117e3)"><path fill="#000000" d="M 901.667969 58.125 L 538.296875 58.125 C 447.214844 58.125 373.109375 132.203125 373.109375 223.277344 L 373.109375 586.65625 C 373.109375 677.734375 447.214844 751.839844 538.296875 751.839844 L 901.667969 751.839844 C 992.75 751.839844 1066.859375 677.734375 1066.859375 586.65625 L 1066.859375 223.277344 C 1066.859375 132.203125 992.75 58.125 901.667969 58.125 Z M 1001.839844 586.65625 C 1001.839844 641.890625 956.902344 686.851562 901.667969 686.851562 L 538.296875 686.851562 C 483.0625 686.851562 438.125 641.890625 438.125 586.65625 L 438.125 223.277344 C 438.125 168.046875 483.0625 123.113281 538.296875 123.113281 L 901.667969 123.113281 C 956.902344 123.113281 1001.839844 168.046875 1001.839844 223.277344 Z M 1001.839844 586.65625 " fill-opacity="1" fill-rule="nonzero"/></g></svg>