<svg xmlns="http://www.w3.org/2000/svg" xmlns:xlink="http://www.w3.org/1999/xlink" width="1920" zoomAndPan="magnify" viewBox="0 0 1440 809.999993" height="1080" preserveAspectRatio="xMidYMid meet" version="1.0"><defs><clipPath id="0efb43c294"><path d="M 373.109375 58.109375 L 1066.859375 58.109375 L 1066.859375 751.859375 L 373.109375 751.859375 Z M 373.109375 58.109375 " clip-rule="nonzero"/></clipPath></defs><g clip-path="url(#0efb43c294)"><path fill="#000000" d="M 720.367188 58.054688 C 530.335938 58.054688 376.511719 209.632812 373.855469 399.644531 C 373.109375 452.855469 384.371094 503.351562 405.089844 548.617188 C 417.261719 575.214844 419.109375 605.386719 410.386719 633.308594 L 378.523438 735.304688 L 494.890625 709.179688 C 520.910156 703.339844 548.089844 706.515625 572.1875 717.933594 C 618.402344 739.835938 670.226562 751.816406 724.925781 751.113281 C 915.097656 748.667969 1066.910156 594.785156 1066.910156 404.597656 C 1066.910156 213.207031 911.757812 58.050781 720.363281 58.050781 Z M 720.367188 58.054688 " fill-opacity="1" fill-rule="nonzero"/></g><path fill="#ffffff" d="M 878.027344 573.675781 C 887 559.292969 893.097656 543.949219 896.078125 527.558594 C 896.996094 522.515625 895.378906 517.339844 891.753906 513.714844 L 850.84375 472.804688 C 843.792969 465.753906 833.925781 462.273438 824.007812 463.347656 C 816.539062 464.152344 809.566406 467.492188 804.253906 472.804688 L 791.695312 485.367188 C 786.113281 490.945312 777.828125 492.75 770.398438 490.09375 C 737.421875 478.320312 691.796875 433.171875 691.796875 433.171875 C 691.796875 433.171875 646.644531 387.542969 634.871094 354.566406 C 632.21875 347.136719 634.019531 338.851562 639.597656 333.273438 L 652.160156 320.710938 C 657.472656 315.398438 660.8125 308.425781 661.617188 300.957031 C 662.691406 291.039062 659.210938 281.175781 652.160156 274.121094 L 611.25 233.210938 C 607.625 229.585938 602.449219 227.96875 597.40625 228.886719 C 581.019531 231.867188 565.675781 237.964844 551.289062 246.9375 C 545.972656 250.257812 542.441406 255.78125 541.511719 261.980469 C 537.066406 291.59375 533.667969 384.398438 637.117188 487.847656 C 740.566406 591.296875 833.371094 587.898438 862.984375 583.453125 C 869.179688 582.523438 874.707031 578.992188 878.023438 573.675781 Z M 878.027344 573.675781 " fill-opacity="1" fill-rule="nonzero"/></svg>