<svg xmlns="http://www.w3.org/2000/svg" xmlns:xlink="http://www.w3.org/1999/xlink" width="1920" zoomAndPan="magnify" viewBox="0 0 1440 809.999993" height="1080" preserveAspectRatio="xMidYMid meet" version="1.0"><defs><clipPath id="13103c419b"><path d="M 127.011719 389.476562 L 540.84375 389.476562 L 540.84375 803.308594 L 127.011719 803.308594 Z M 127.011719 389.476562 " clip-rule="nonzero"/></clipPath><clipPath id="2aa9c6b0b3"><path d="M 333.929688 389.476562 C 219.652344 389.476562 127.011719 482.117188 127.011719 596.390625 C 127.011719 710.667969 219.652344 803.308594 333.929688 803.308594 C 448.203125 803.308594 540.84375 710.667969 540.84375 596.390625 C 540.84375 482.117188 448.203125 389.476562 333.929688 389.476562 Z M 333.929688 389.476562 " clip-rule="nonzero"/></clipPath><clipPath id="36c4d45138"><path d="M 0.0117188 0.476562 L 413.84375 0.476562 L 413.84375 414.308594 L 0.0117188 414.308594 Z M 0.0117188 0.476562 " clip-rule="nonzero"/></clipPath><clipPath id="ede3d325f7"><path d="M 206.929688 0.476562 C 92.652344 0.476562 0.0117188 93.117188 0.0117188 207.390625 C 0.0117188 321.667969 92.652344 414.308594 206.929688 414.308594 C 321.203125 414.308594 413.84375 321.667969 413.84375 207.390625 C 413.84375 93.117188 321.203125 0.476562 206.929688 0.476562 Z M 206.929688 0.476562 " clip-rule="nonzero"/></clipPath><clipPath id="5d6035ac9b"><rect x="0" width="414" y="0" height="415"/></clipPath><clipPath id="27e594f2d1"><path d="M 0 493.351562 L 334 493.351562 L 334 625.652344 L 0 625.652344 Z M 0 493.351562 " clip-rule="nonzero"/></clipPath><clipPath id="211e663bec"><path d="M -39.40625 596.402344 L -39.40625 522.601562 C -39.40625 514.84375 -36.324219 507.40625 -30.835938 501.917969 C -25.351562 496.433594 -17.914062 493.351562 -10.15625 493.351562 L 304.679688 493.351562 C 312.433594 493.351562 319.875 496.433594 325.359375 501.917969 C 330.847656 507.40625 333.929688 514.84375 333.929688 522.601562 L 333.929688 596.402344 C 333.929688 604.160156 330.847656 611.601562 325.359375 617.085938 C 319.875 622.574219 312.433594 625.652344 304.679688 625.652344 L -10.15625 625.652344 C -17.914062 625.652344 -25.351562 622.574219 -30.835938 617.085938 C -36.324219 611.601562 -39.40625 604.160156 -39.40625 596.402344 Z M -39.40625 596.402344 " clip-rule="nonzero"/></clipPath><clipPath id="87f980d19f"><path d="M 0 0.351562 L 334 0.351562 L 334 132.652344 L 0 132.652344 Z M 0 0.351562 " clip-rule="nonzero"/></clipPath><clipPath id="ad3f11c934"><path d="M -39.40625 103.402344 L -39.40625 29.601562 C -39.40625 21.84375 -36.324219 14.40625 -30.835938 8.917969 C -25.351562 3.433594 -17.914062 0.351562 -10.15625 0.351562 L 304.679688 0.351562 C 312.433594 0.351562 319.875 3.433594 325.359375 8.917969 C 330.847656 14.40625 333.929688 21.84375 333.929688 29.601562 L 333.929688 103.402344 C 333.929688 111.160156 330.847656 118.601562 325.359375 124.085938 C 319.875 129.574219 312.433594 132.652344 304.679688 132.652344 L -10.15625 132.652344 C -17.914062 132.652344 -25.351562 129.574219 -30.835938 124.085938 C -36.324219 118.601562 -39.40625 111.160156 -39.40625 103.402344 Z M -39.40625 103.402344 " clip-rule="nonzero"/></clipPath><clipPath id="7d28e03ec7"><rect x="0" width="334" y="0" height="133"/></clipPath><clipPath id="22239e1f99"><path d="M 160.03125 559.511719 L 283.476562 559.511719 L 283.476562 810 L 160.03125 810 Z M 160.03125 559.511719 " clip-rule="nonzero"/></clipPath><clipPath id="817e4b60ff"><path d="M 198.28125 559.511719 L 245.226562 559.511719 C 255.371094 559.511719 265.101562 563.542969 272.273438 570.714844 C 279.445312 577.886719 283.476562 587.617188 283.476562 597.761719 L 283.476562 878.585938 C 283.476562 888.730469 279.445312 898.460938 272.273438 905.632812 C 265.101562 912.808594 255.371094 916.835938 245.226562 916.835938 L 198.28125 916.835938 C 188.136719 916.835938 178.40625 912.808594 171.234375 905.632812 C 164.0625 898.460938 160.03125 888.730469 160.03125 878.585938 L 160.03125 597.761719 C 160.03125 587.617188 164.0625 577.886719 171.234375 570.714844 C 178.40625 563.542969 188.136719 559.511719 198.28125 559.511719 Z M 198.28125 559.511719 " clip-rule="nonzero"/></clipPath><clipPath id="3289164609"><path d="M 0.03125 0.511719 L 123.476562 0.511719 L 123.476562 251 L 0.03125 251 Z M 0.03125 0.511719 " clip-rule="nonzero"/></clipPath><clipPath id="71b34bd4e5"><path d="M 38.28125 0.511719 L 85.226562 0.511719 C 95.371094 0.511719 105.101562 4.542969 112.273438 11.714844 C 119.445312 18.886719 123.476562 28.617188 123.476562 38.761719 L 123.476562 319.585938 C 123.476562 329.730469 119.445312 339.460938 112.273438 346.632812 C 105.101562 353.808594 95.371094 357.835938 85.226562 357.835938 L 38.28125 357.835938 C 28.136719 357.835938 18.40625 353.808594 11.234375 346.632812 C 4.0625 339.460938 0.03125 329.730469 0.03125 319.585938 L 0.03125 38.761719 C 0.03125 28.617188 4.0625 18.886719 11.234375 11.714844 C 18.40625 4.542969 28.136719 0.511719 38.28125 0.511719 Z M 38.28125 0.511719 " clip-rule="nonzero"/></clipPath><clipPath id="d836d62071"><rect x="0" width="124" y="0" height="251"/></clipPath><clipPath id="669571d250"><path d="M 1166.332031 649.429688 L 1440 649.429688 L 1440 810 L 1166.332031 810 Z M 1166.332031 649.429688 " clip-rule="nonzero"/></clipPath><clipPath id="a8dae56520"><path d="M 1367.4375 649.429688 C 1256.371094 649.429688 1166.332031 740.007812 1166.332031 851.742188 C 1166.332031 963.472656 1256.371094 1054.050781 1367.4375 1054.050781 C 1478.503906 1054.050781 1568.542969 963.472656 1568.542969 851.742188 C 1568.542969 740.007812 1478.503906 649.429688 1367.4375 649.429688 Z M 1367.4375 649.429688 " clip-rule="nonzero"/></clipPath><clipPath id="e5733a57bd"><path d="M 0.332031 0.429688 L 274 0.429688 L 274 161 L 0.332031 161 Z M 0.332031 0.429688 " clip-rule="nonzero"/></clipPath><clipPath id="c5d0b65883"><path d="M 201.4375 0.429688 C 90.371094 0.429688 0.332031 91.007812 0.332031 202.742188 C 0.332031 314.472656 90.371094 405.050781 201.4375 405.050781 C 312.503906 405.050781 402.542969 314.472656 402.542969 202.742188 C 402.542969 91.007812 312.503906 0.429688 201.4375 0.429688 Z M 201.4375 0.429688 " clip-rule="nonzero"/></clipPath><clipPath id="acaaf90447"><rect x="0" width="274" y="0" height="161"/></clipPath><clipPath id="8ad60b997d"><path d="M 251.273438 596.390625 L 374.71875 596.390625 L 374.71875 810 L 251.273438 810 Z M 251.273438 596.390625 " clip-rule="nonzero"/></clipPath><clipPath id="c8c59dfd49"><path d="M 289.523438 596.390625 L 336.46875 596.390625 C 346.613281 596.390625 356.34375 600.421875 363.515625 607.59375 C 370.6875 614.769531 374.71875 624.496094 374.71875 634.640625 L 374.71875 863.28125 C 374.71875 873.425781 370.6875 883.152344 363.515625 890.328125 C 356.34375 897.5 346.613281 901.53125 336.46875 901.53125 L 289.523438 901.53125 C 279.378906 901.53125 269.648438 897.5 262.476562 890.328125 C 255.304688 883.152344 251.273438 873.425781 251.273438 863.28125 L 251.273438 634.640625 C 251.273438 624.496094 255.304688 614.769531 262.476562 607.59375 C 269.648438 600.421875 279.378906 596.390625 289.523438 596.390625 Z M 289.523438 596.390625 " clip-rule="nonzero"/></clipPath><clipPath id="fe9377c491"><path d="M 0.273438 0.390625 L 123.71875 0.390625 L 123.71875 214 L 0.273438 214 Z M 0.273438 0.390625 " clip-rule="nonzero"/></clipPath><clipPath id="f5ab4b476d"><path d="M 38.523438 0.390625 L 85.46875 0.390625 C 95.613281 0.390625 105.34375 4.421875 112.515625 11.59375 C 119.6875 18.769531 123.71875 28.496094 123.71875 38.640625 L 123.71875 267.28125 C 123.71875 277.425781 119.6875 287.152344 112.515625 294.328125 C 105.34375 301.5 95.613281 305.53125 85.46875 305.53125 L 38.523438 305.53125 C 28.378906 305.53125 18.648438 301.5 11.476562 294.328125 C 4.304688 287.152344 0.273438 277.425781 0.273438 267.28125 L 0.273438 38.640625 C 0.273438 28.496094 4.304688 18.769531 11.476562 11.59375 C 18.648438 4.421875 28.378906 0.390625 38.523438 0.390625 Z M 38.523438 0.390625 " clip-rule="nonzero"/></clipPath><clipPath id="61871d4e91"><rect x="0" width="124" y="0" height="214"/></clipPath><clipPath id="a0f009dca5"><path d="M 0 463.746094 L 137.566406 463.746094 L 137.566406 596.390625 L 0 596.390625 Z M 0 463.746094 " clip-rule="nonzero"/></clipPath><clipPath id="0c2468328e"><path d="M -17.359375 463.746094 L 70.941406 463.746094 C 88.53125 463.746094 105.402344 470.734375 117.839844 483.171875 C 130.277344 495.609375 137.265625 512.480469 137.265625 530.070312 C 137.265625 547.660156 130.277344 564.527344 117.839844 576.964844 C 105.402344 589.40625 88.53125 596.390625 70.941406 596.390625 L -17.359375 596.390625 C -34.949219 596.390625 -51.820312 589.40625 -64.257812 576.964844 C -76.695312 564.527344 -83.683594 547.660156 -83.683594 530.070312 C -83.683594 512.480469 -76.695312 495.609375 -64.257812 483.171875 C -51.820312 470.734375 -34.949219 463.746094 -17.359375 463.746094 Z M -17.359375 463.746094 " clip-rule="nonzero"/></clipPath><clipPath id="64a415142e"><path d="M 0 0.746094 L 137.28125 0.746094 L 137.28125 133.390625 L 0 133.390625 Z M 0 0.746094 " clip-rule="nonzero"/></clipPath><clipPath id="2021df683b"><path d="M -17.359375 0.746094 L 70.941406 0.746094 C 88.53125 0.746094 105.402344 7.734375 117.839844 20.171875 C 130.277344 32.609375 137.265625 49.480469 137.265625 67.070312 C 137.265625 84.660156 130.277344 101.527344 117.839844 113.964844 C 105.402344 126.40625 88.53125 133.390625 70.941406 133.390625 L -17.359375 133.390625 C -34.949219 133.390625 -51.820312 126.40625 -64.257812 113.964844 C -76.695312 101.527344 -83.683594 84.660156 -83.683594 67.070312 C -83.683594 49.480469 -76.695312 32.609375 -64.257812 20.171875 C -51.820312 7.734375 -34.949219 0.746094 -17.359375 0.746094 Z M -17.359375 0.746094 " clip-rule="nonzero"/></clipPath><clipPath id="b58cf22bbd"><rect x="0" width="138" y="0" height="134"/></clipPath><clipPath id="54d7ede774"><path d="M 1039.613281 0 L 1440 0 L 1440 174.757812 L 1039.613281 174.757812 Z M 1039.613281 0 " clip-rule="nonzero"/></clipPath><clipPath id="43bb3d0215"><path d="M 1273.835938 -293.683594 C 1144.480469 -293.683594 1039.613281 -188.820312 1039.613281 -59.460938 C 1039.613281 69.894531 1144.480469 174.757812 1273.835938 174.757812 C 1403.195312 174.757812 1508.058594 69.894531 1508.058594 -59.460938 C 1508.058594 -188.820312 1403.195312 -293.683594 1273.835938 -293.683594 Z M 1273.835938 -293.683594 " clip-rule="nonzero"/></clipPath><clipPath id="f22fa11f59"><path d="M 0.613281 0 L 401 0 L 401 174.757812 L 0.613281 174.757812 Z M 0.613281 0 " clip-rule="nonzero"/></clipPath><clipPath id="288f114098"><path d="M 234.835938 -293.683594 C 105.480469 -293.683594 0.613281 -188.820312 0.613281 -59.460938 C 0.613281 69.894531 105.480469 174.757812 234.835938 174.757812 C 364.195312 174.757812 469.058594 69.894531 469.058594 -59.460938 C 469.058594 -188.820312 364.195312 -293.683594 234.835938 -293.683594 Z M 234.835938 -293.683594 " clip-rule="nonzero"/></clipPath><clipPath id="cdf0c18c64"><rect x="0" width="401" y="0" height="175"/></clipPath><clipPath id="16f21a9dc8"><path d="M 984.574219 0 L 1440 0 L 1440 99.402344 L 984.574219 99.402344 Z M 984.574219 0 " clip-rule="nonzero"/></clipPath><clipPath id="acb2f80eb8"><path d="M 984.574219 61.152344 L 984.574219 -21.21875 C 984.574219 -31.363281 988.605469 -41.089844 995.777344 -48.265625 C 1002.953125 -55.4375 1012.679688 -59.46875 1022.824219 -59.46875 L 1425.929688 -59.46875 C 1436.074219 -59.46875 1445.800781 -55.4375 1452.976562 -48.265625 C 1460.148438 -41.089844 1464.179688 -31.363281 1464.179688 -21.21875 L 1464.179688 61.152344 C 1464.179688 71.296875 1460.148438 81.023438 1452.976562 88.199219 C 1445.800781 95.371094 1436.074219 99.402344 1425.929688 99.402344 L 1022.824219 99.402344 C 1012.679688 99.402344 1002.953125 95.371094 995.777344 88.199219 C 988.605469 81.023438 984.574219 71.296875 984.574219 61.152344 Z M 984.574219 61.152344 " clip-rule="nonzero"/></clipPath><clipPath id="7864d6d4da"><path d="M 0.574219 0 L 456 0 L 456 99.402344 L 0.574219 99.402344 Z M 0.574219 0 " clip-rule="nonzero"/></clipPath><clipPath id="e7796ae70b"><path d="M 0.574219 61.152344 L 0.574219 -21.21875 C 0.574219 -31.363281 4.605469 -41.089844 11.777344 -48.265625 C 18.953125 -55.4375 28.679688 -59.46875 38.824219 -59.46875 L 441.929688 -59.46875 C 452.074219 -59.46875 461.800781 -55.4375 468.976562 -48.265625 C 476.148438 -41.089844 480.179688 -31.363281 480.179688 -21.21875 L 480.179688 61.152344 C 480.179688 71.296875 476.148438 81.023438 468.976562 88.199219 C 461.800781 95.371094 452.074219 99.402344 441.929688 99.402344 L 38.824219 99.402344 C 28.679688 99.402344 18.953125 95.371094 11.777344 88.199219 C 4.605469 81.023438 0.574219 71.296875 0.574219 61.152344 Z M 0.574219 61.152344 " clip-rule="nonzero"/></clipPath><clipPath id="a1033a0ad3"><rect x="0" width="456" y="0" height="100"/></clipPath><clipPath id="4334003bca"><path d="M 1339.285156 19.972656 L 1440 19.972656 L 1440 293.996094 L 1339.285156 293.996094 Z M 1339.285156 19.972656 " clip-rule="nonzero"/></clipPath><clipPath id="564075d42c"><path d="M 1377.535156 19.972656 L 1457.96875 19.972656 C 1468.113281 19.972656 1477.84375 24.003906 1485.015625 31.175781 C 1492.1875 38.347656 1496.21875 48.078125 1496.21875 58.222656 L 1496.21875 255.257812 C 1496.21875 265.402344 1492.1875 275.128906 1485.015625 282.304688 C 1477.84375 289.476562 1468.113281 293.507812 1457.96875 293.507812 L 1377.535156 293.507812 C 1367.390625 293.507812 1357.660156 289.476562 1350.488281 282.304688 C 1343.3125 275.128906 1339.285156 265.402344 1339.285156 255.257812 L 1339.285156 58.222656 C 1339.285156 48.078125 1343.3125 38.347656 1350.488281 31.175781 C 1357.660156 24.003906 1367.390625 19.972656 1377.535156 19.972656 Z M 1377.535156 19.972656 " clip-rule="nonzero"/></clipPath><clipPath id="62cf4b286c"><path d="M 0.285156 0.972656 L 101 0.972656 L 101 274.519531 L 0.285156 274.519531 Z M 0.285156 0.972656 " clip-rule="nonzero"/></clipPath><clipPath id="1d60d77b3f"><path d="M 38.535156 0.972656 L 118.96875 0.972656 C 129.113281 0.972656 138.84375 5.003906 146.015625 12.175781 C 153.1875 19.347656 157.21875 29.078125 157.21875 39.222656 L 157.21875 236.257812 C 157.21875 246.402344 153.1875 256.128906 146.015625 263.304688 C 138.84375 270.476562 129.113281 274.507812 118.96875 274.507812 L 38.535156 274.507812 C 28.390625 274.507812 18.660156 270.476562 11.488281 263.304688 C 4.3125 256.128906 0.285156 246.402344 0.285156 236.257812 L 0.285156 39.222656 C 0.285156 29.078125 4.3125 19.347656 11.488281 12.175781 C 18.660156 5.003906 28.390625 0.972656 38.535156 0.972656 Z M 38.535156 0.972656 " clip-rule="nonzero"/></clipPath><clipPath id="14994c99a9"><rect x="0" width="101" y="0" height="275"/></clipPath><clipPath id="73ca3c1b45"><path d="M 1386.089844 32.667969 L 1440 32.667969 L 1440 349.503906 L 1386.089844 349.503906 Z M 1386.089844 32.667969 " clip-rule="nonzero"/></clipPath><clipPath id="beb220d543"><path d="M 1424.339844 32.667969 L 1469.808594 32.667969 C 1479.953125 32.667969 1489.683594 36.695312 1496.855469 43.871094 C 1504.027344 51.042969 1508.058594 60.773438 1508.058594 70.917969 L 1508.058594 311.214844 C 1508.058594 321.359375 1504.027344 331.089844 1496.855469 338.261719 C 1489.683594 345.433594 1479.953125 349.464844 1469.808594 349.464844 L 1424.339844 349.464844 C 1414.195312 349.464844 1404.464844 345.433594 1397.292969 338.261719 C 1390.117188 331.089844 1386.089844 321.359375 1386.089844 311.214844 L 1386.089844 70.917969 C 1386.089844 60.773438 1390.117188 51.042969 1397.292969 43.871094 C 1404.464844 36.695312 1414.195312 32.667969 1424.339844 32.667969 Z M 1424.339844 32.667969 " clip-rule="nonzero"/></clipPath><clipPath id="fa943669ba"><path d="M 0.0898438 0.667969 L 54 0.667969 L 54 317.503906 L 0.0898438 317.503906 Z M 0.0898438 0.667969 " clip-rule="nonzero"/></clipPath><clipPath id="5d780608fb"><path d="M 38.339844 0.667969 L 83.808594 0.667969 C 93.953125 0.667969 103.683594 4.695312 110.855469 11.871094 C 118.027344 19.042969 122.058594 28.773438 122.058594 38.917969 L 122.058594 279.214844 C 122.058594 289.359375 118.027344 299.089844 110.855469 306.261719 C 103.683594 313.433594 93.953125 317.464844 83.808594 317.464844 L 38.339844 317.464844 C 28.195312 317.464844 18.464844 313.433594 11.292969 306.261719 C 4.117188 299.089844 0.0898438 289.359375 0.0898438 279.214844 L 0.0898438 38.917969 C 0.0898438 28.773438 4.117188 19.042969 11.292969 11.871094 C 18.464844 4.695312 28.195312 0.667969 38.339844 0.667969 Z M 38.339844 0.667969 " clip-rule="nonzero"/></clipPath><clipPath id="8ddff6ca81"><rect x="0" width="54" y="0" height="318"/></clipPath><clipPath id="4737a2ea7e"><path d="M 677.152344 0 L 1193.324219 0 L 1193.324219 50.835938 L 677.152344 50.835938 Z M 677.152344 0 " clip-rule="nonzero"/></clipPath><clipPath id="9a612cd8f7"><path d="M 745.691406 -86.238281 L 1124.761719 -86.238281 C 1142.9375 -86.238281 1160.371094 -79.019531 1173.222656 -66.164062 C 1186.078125 -53.3125 1193.296875 -35.878906 1193.296875 -17.703125 C 1193.296875 0.476562 1186.078125 17.90625 1173.222656 30.761719 C 1160.371094 43.613281 1142.9375 50.835938 1124.761719 50.835938 L 745.691406 50.835938 C 727.511719 50.835938 710.082031 43.613281 697.226562 30.761719 C 684.375 17.90625 677.152344 0.476562 677.152344 -17.703125 C 677.152344 -35.878906 684.375 -53.3125 697.226562 -66.164062 C 710.082031 -79.019531 727.511719 -86.238281 745.691406 -86.238281 Z M 745.691406 -86.238281 " clip-rule="nonzero"/></clipPath><clipPath id="449fd27a7d"><path d="M 0.152344 0 L 516.324219 0 L 516.324219 50.835938 L 0.152344 50.835938 Z M 0.152344 0 " clip-rule="nonzero"/></clipPath><clipPath id="800d131f4f"><path d="M 68.691406 -86.238281 L 447.761719 -86.238281 C 465.9375 -86.238281 483.371094 -79.019531 496.222656 -66.164062 C 509.078125 -53.3125 516.296875 -35.878906 516.296875 -17.703125 C 516.296875 0.476562 509.078125 17.90625 496.222656 30.761719 C 483.371094 43.613281 465.9375 50.835938 447.761719 50.835938 L 68.691406 50.835938 C 50.511719 50.835938 33.082031 43.613281 20.226562 30.761719 C 7.375 17.90625 0.152344 0.476562 0.152344 -17.703125 C 0.152344 -35.878906 7.375 -53.3125 20.226562 -66.164062 C 33.082031 -79.019531 50.511719 -86.238281 68.691406 -86.238281 Z M 68.691406 -86.238281 " clip-rule="nonzero"/></clipPath><clipPath id="9f3d75efda"><rect x="0" width="517" y="0" height="51"/></clipPath><clipPath id="56a39c77e7"><path d="M 720 770.238281 L 1262.578125 770.238281 L 1262.578125 810 L 720 810 Z M 720 770.238281 " clip-rule="nonzero"/></clipPath><clipPath id="8adcb6a93c"><path d="M 753.070312 770.238281 L 1229.289062 770.238281 C 1247.550781 770.238281 1262.359375 785.042969 1262.359375 803.308594 C 1262.359375 821.574219 1247.550781 836.378906 1229.289062 836.378906 L 753.070312 836.378906 C 734.804688 836.378906 720 821.574219 720 803.308594 C 720 785.042969 734.804688 770.238281 753.070312 770.238281 Z M 753.070312 770.238281 " clip-rule="nonzero"/></clipPath><clipPath id="33fa1d266b"><path d="M 0 0.238281 L 542.398438 0.238281 L 542.398438 40 L 0 40 Z M 0 0.238281 " clip-rule="nonzero"/></clipPath><clipPath id="1759d50a6e"><path d="M 33.070312 0.238281 L 509.289062 0.238281 C 527.550781 0.238281 542.359375 15.042969 542.359375 33.308594 C 542.359375 51.574219 527.550781 66.378906 509.289062 66.378906 L 33.070312 66.378906 C 14.804688 66.378906 0 51.574219 0 33.308594 C 0 15.042969 14.804688 0.238281 33.070312 0.238281 Z M 33.070312 0.238281 " clip-rule="nonzero"/></clipPath><clipPath id="40214ff9e9"><rect x="0" width="543" y="0" height="40"/></clipPath><clipPath id="429ed022f5"><path d="M 1291.269531 596.390625 L 1440 596.390625 L 1440 810 L 1291.269531 810 Z M 1291.269531 596.390625 " clip-rule="nonzero"/></clipPath><clipPath id="15c8f66932"><path d="M 1329.519531 596.390625 L 1451.742188 596.390625 C 1461.886719 596.390625 1471.613281 600.421875 1478.789062 607.59375 C 1485.960938 614.769531 1489.992188 624.496094 1489.992188 634.640625 L 1489.992188 907.558594 C 1489.992188 917.703125 1485.960938 927.433594 1478.789062 934.605469 C 1471.613281 941.777344 1461.886719 945.808594 1451.742188 945.808594 L 1329.519531 945.808594 C 1319.375 945.808594 1309.648438 941.777344 1302.472656 934.605469 C 1295.300781 927.433594 1291.269531 917.703125 1291.269531 907.558594 L 1291.269531 634.640625 C 1291.269531 624.496094 1295.300781 614.769531 1302.472656 607.59375 C 1309.648438 600.421875 1319.375 596.390625 1329.519531 596.390625 Z M 1329.519531 596.390625 " clip-rule="nonzero"/></clipPath><clipPath id="658684b857"><path d="M 0.269531 0.390625 L 149 0.390625 L 149 214 L 0.269531 214 Z M 0.269531 0.390625 " clip-rule="nonzero"/></clipPath><clipPath id="2a9f75afb8"><path d="M 38.519531 0.390625 L 160.742188 0.390625 C 170.886719 0.390625 180.613281 4.421875 187.789062 11.59375 C 194.960938 18.769531 198.992188 28.496094 198.992188 38.640625 L 198.992188 311.558594 C 198.992188 321.703125 194.960938 331.433594 187.789062 338.605469 C 180.613281 345.777344 170.886719 349.808594 160.742188 349.808594 L 38.519531 349.808594 C 28.375 349.808594 18.648438 345.777344 11.472656 338.605469 C 4.300781 331.433594 0.269531 321.703125 0.269531 311.558594 L 0.269531 38.640625 C 0.269531 28.496094 4.300781 18.769531 11.472656 11.59375 C 18.648438 4.421875 28.375 0.390625 38.519531 0.390625 Z M 38.519531 0.390625 " clip-rule="nonzero"/></clipPath><clipPath id="684a9683c8"><rect x="0" width="149" y="0" height="214"/></clipPath><clipPath id="0e63849cfe"><path d="M 1335.519531 530.070312 L 1440 530.070312 L 1440 714.320312 L 1335.519531 714.320312 Z M 1335.519531 530.070312 " clip-rule="nonzero"/></clipPath><clipPath id="34b2573bd5"><path d="M 1373.769531 530.070312 L 1453.457031 530.070312 C 1474.582031 530.070312 1491.707031 547.195312 1491.707031 568.320312 L 1491.707031 675.957031 C 1491.707031 697.082031 1474.582031 714.207031 1453.457031 714.207031 L 1373.769531 714.207031 C 1352.644531 714.207031 1335.519531 697.082031 1335.519531 675.957031 L 1335.519531 568.320312 C 1335.519531 547.195312 1352.644531 530.070312 1373.769531 530.070312 Z M 1373.769531 530.070312 " clip-rule="nonzero"/></clipPath><clipPath id="cdf909c9f1"><path d="M 0.519531 0.0703125 L 105 0.0703125 L 105 184.238281 L 0.519531 184.238281 Z M 0.519531 0.0703125 " clip-rule="nonzero"/></clipPath><clipPath id="91e441573d"><path d="M 38.769531 0.0703125 L 118.457031 0.0703125 C 139.582031 0.0703125 156.707031 17.195312 156.707031 38.320312 L 156.707031 145.957031 C 156.707031 167.082031 139.582031 184.207031 118.457031 184.207031 L 38.769531 184.207031 C 17.644531 184.207031 0.519531 167.082031 0.519531 145.957031 L 0.519531 38.320312 C 0.519531 17.195312 17.644531 0.0703125 38.769531 0.0703125 Z M 38.769531 0.0703125 " clip-rule="nonzero"/></clipPath><clipPath id="9c5ed64d55"><rect x="0" width="105" y="0" height="185"/></clipPath><clipPath id="ae05bcc6ab"><path d="M 662.9375 313.859375 L 718.371094 313.859375 L 718.371094 530.070312 L 662.9375 530.070312 Z M 662.9375 313.859375 " clip-rule="nonzero"/></clipPath><clipPath id="649ba755b3"><path d="M 0.9375 0.859375 L 56.371094 0.859375 L 56.371094 217.070312 L 0.9375 217.070312 Z M 0.9375 0.859375 " clip-rule="nonzero"/></clipPath><clipPath id="c1da6d90d9"><rect x="0" width="57" y="0" height="218"/></clipPath></defs><g clip-path="url(#13103c419b)"><g clip-path="url(#2aa9c6b0b3)"><g transform="matrix(1, 0, 0, 1, 127, 389)"><g clip-path="url(#5d6035ac9b)"><g clip-path="url(#36c4d45138)"><g clip-path="url(#ede3d325f7)"><path fill="#cee3fc" d="M 0.0117188 0.476562 L 413.84375 0.476562 L 413.84375 414.308594 L 0.0117188 414.308594 Z M 0.0117188 0.476562 " fill-opacity="1" fill-rule="nonzero"/></g></g></g></g></g></g><g clip-path="url(#27e594f2d1)"><g clip-path="url(#211e663bec)"><g transform="matrix(1, 0, 0, 1, 0, 493)"><g clip-path="url(#7d28e03ec7)"><g clip-path="url(#87f980d19f)"><g clip-path="url(#ad3f11c934)"><path fill="#144a93" d="M -39.40625 132.652344 L -39.40625 0.351562 L 333.726562 0.351562 L 333.726562 132.652344 Z M -39.40625 132.652344 " fill-opacity="1" fill-rule="nonzero"/></g></g></g></g></g></g><g clip-path="url(#22239e1f99)"><g clip-path="url(#817e4b60ff)"><g transform="matrix(1, 0, 0, 1, 160, 559)"><g clip-path="url(#d836d62071)"><g clip-path="url(#3289164609)"><g clip-path="url(#71b34bd4e5)"><path fill="#6ea4eb" d="M 0.03125 0.511719 L 123.476562 0.511719 L 123.476562 357.828125 L 0.03125 357.828125 Z M 0.03125 0.511719 " fill-opacity="1" fill-rule="nonzero"/></g></g></g></g></g></g><g clip-path="url(#669571d250)"><g clip-path="url(#a8dae56520)"><g transform="matrix(1, 0, 0, 1, 1166, 649)"><g clip-path="url(#acaaf90447)"><g clip-path="url(#e5733a57bd)"><g clip-path="url(#c5d0b65883)"><path fill="#b8d7fa" d="M 0.332031 0.429688 L 402.542969 0.429688 L 402.542969 405.78125 L 0.332031 405.78125 Z M 0.332031 0.429688 " fill-opacity="1" fill-rule="nonzero"/></g></g></g></g></g></g><g clip-path="url(#8ad60b997d)"><g clip-path="url(#c8c59dfd49)"><g transform="matrix(1, 0, 0, 1, 251, 596)"><g clip-path="url(#61871d4e91)"><g clip-path="url(#fe9377c491)"><g clip-path="url(#f5ab4b476d)"><path fill="#144a93" d="M 0.273438 0.390625 L 123.71875 0.390625 L 123.71875 305.632812 L 0.273438 305.632812 Z M 0.273438 0.390625 " fill-opacity="1" fill-rule="nonzero"/></g></g></g></g></g></g><g clip-path="url(#a0f009dca5)"><g clip-path="url(#0c2468328e)"><g transform="matrix(1, 0, 0, 1, 0, 463)"><g clip-path="url(#b58cf22bbd)"><g clip-path="url(#64a415142e)"><g clip-path="url(#2021df683b)"><path fill="#dcebfe" d="M -83.683594 0.746094 L 137.046875 0.746094 L 137.046875 133.390625 L -83.683594 133.390625 Z M -83.683594 0.746094 " fill-opacity="1" fill-rule="nonzero"/></g></g></g></g></g></g><g clip-path="url(#54d7ede774)"><g clip-path="url(#43bb3d0215)"><g transform="matrix(1, 0, 0, 1, 1039, 0.000000000000039746)"><g clip-path="url(#cdf0c18c64)"><g clip-path="url(#f22fa11f59)"><g clip-path="url(#288f114098)"><path fill="#cee3fc" d="M 0.613281 -293.683594 L 469.058594 -293.683594 L 469.058594 174.757812 L 0.613281 174.757812 Z M 0.613281 -293.683594 " fill-opacity="1" fill-rule="nonzero"/></g></g></g></g></g></g><g clip-path="url(#16f21a9dc8)"><g clip-path="url(#acb2f80eb8)"><g transform="matrix(1, 0, 0, 1, 984, 0.000000000000039746)"><g clip-path="url(#a1033a0ad3)"><g clip-path="url(#7864d6d4da)"><g clip-path="url(#e7796ae70b)"><path fill="#144a93" d="M 0.574219 99.402344 L 0.574219 -59.46875 L 480.285156 -59.46875 L 480.285156 99.402344 Z M 0.574219 99.402344 " fill-opacity="1" fill-rule="nonzero"/></g></g></g></g></g></g><g clip-path="url(#4334003bca)"><g clip-path="url(#564075d42c)"><g transform="matrix(1, 0, 0, 1, 1339, 19)"><g clip-path="url(#14994c99a9)"><g clip-path="url(#62cf4b286c)"><g clip-path="url(#1d60d77b3f)"><path fill="#6ea4eb" d="M 0.285156 0.972656 L 157.21875 0.972656 L 157.21875 274.382812 L 0.285156 274.382812 Z M 0.285156 0.972656 " fill-opacity="1" fill-rule="nonzero"/></g></g></g></g></g></g><g clip-path="url(#73ca3c1b45)"><g clip-path="url(#beb220d543)"><g transform="matrix(1, 0, 0, 1, 1386, 32)"><g clip-path="url(#8ddff6ca81)"><g clip-path="url(#fa943669ba)"><g clip-path="url(#5d780608fb)"><path fill="#144a93" d="M 0.0898438 0.667969 L 122.058594 0.667969 L 122.058594 317.503906 L 0.0898438 317.503906 Z M 0.0898438 0.667969 " fill-opacity="1" fill-rule="nonzero"/></g></g></g></g></g></g><g clip-path="url(#4737a2ea7e)"><g clip-path="url(#9a612cd8f7)"><g transform="matrix(1, 0, 0, 1, 677, 0.000000000000039746)"><g clip-path="url(#9f3d75efda)"><g clip-path="url(#449fd27a7d)"><g clip-path="url(#800d131f4f)"><path fill="#dcebfe" d="M 0.152344 -86.238281 L 516.324219 -86.238281 L 516.324219 50.835938 L 0.152344 50.835938 Z M 0.152344 -86.238281 " fill-opacity="1" fill-rule="nonzero"/></g></g></g></g></g></g><g clip-path="url(#56a39c77e7)"><g clip-path="url(#8adcb6a93c)"><g transform="matrix(1, 0, 0, 1, 720, 770)"><g clip-path="url(#40214ff9e9)"><g clip-path="url(#33fa1d266b)"><g clip-path="url(#1759d50a6e)"><path fill="#144a93" d="M 0 0.238281 L 542.320312 0.238281 L 542.320312 66.378906 L 0 66.378906 Z M 0 0.238281 " fill-opacity="1" fill-rule="nonzero"/></g></g></g></g></g></g><g clip-path="url(#429ed022f5)"><g clip-path="url(#15c8f66932)"><g transform="matrix(1, 0, 0, 1, 1291, 596)"><g clip-path="url(#684a9683c8)"><g clip-path="url(#658684b857)"><g clip-path="url(#2a9f75afb8)"><path fill="#b8d7fa" d="M 0.269531 0.390625 L 198.992188 0.390625 L 198.992188 349.707031 L 0.269531 349.707031 Z M 0.269531 0.390625 " fill-opacity="1" fill-rule="nonzero"/></g></g></g></g></g></g><g clip-path="url(#0e63849cfe)"><g clip-path="url(#34b2573bd5)"><g transform="matrix(1, 0, 0, 1, 1335, 530)"><g clip-path="url(#9c5ed64d55)"><g clip-path="url(#cdf909c9f1)"><g clip-path="url(#91e441573d)"><path fill="#144a93" d="M 0.519531 0.0703125 L 156.707031 0.0703125 L 156.707031 184.320312 L 0.519531 184.320312 Z M 0.519531 0.0703125 " fill-opacity="1" fill-rule="nonzero"/></g></g></g></g></g></g><g clip-path="url(#ae05bcc6ab)"><g transform="matrix(1, 0, 0, 1, 662, 313)"><g clip-path="url(#c1da6d90d9)"><g clip-path="url(#649ba755b3)"><path fill="#ebf5fd" d="M 0.9375 0.859375 L 56.371094 0.859375 L 56.371094 217.175781 L 0.9375 217.175781 Z M 0.9375 0.859375 " fill-opacity="1" fill-rule="nonzero"/></g></g></g></g></svg>