<svg xmlns="http://www.w3.org/2000/svg" xmlns:xlink="http://www.w3.org/1999/xlink" width="1920" zoomAndPan="magnify" viewBox="0 0 1440 809.999993" height="1080" preserveAspectRatio="xMidYMid meet" version="1.0"><defs><clipPath id="524a3a4160"><path d="M 373.109375 58.109375 L 1066.859375 58.109375 L 1066.859375 751.859375 L 373.109375 751.859375 Z M 373.109375 58.109375 " clip-rule="nonzero"/></clipPath></defs><g clip-path="url(#524a3a4160)"><path fill="#000000" d="M 719.984375 58.109375 C 528.375 58.109375 373.109375 213.375 373.109375 404.984375 C 373.109375 596.589844 528.375 751.859375 719.984375 751.859375 C 911.589844 751.859375 1066.859375 596.589844 1066.859375 404.984375 C 1066.558594 213.375 911.289062 58.109375 719.984375 58.109375 Z M 922.402344 326.898438 C 922.402344 326.898438 928.40625 459.640625 827.5 541.929688 C 676.4375 664.761719 513.359375 565.054688 513.359375 565.054688 C 513.359375 565.054688 553.003906 565.65625 588.140625 556.347656 C 622.976562 547.035156 648.203125 524.210938 648.203125 524.210938 C 648.203125 524.210938 610.0625 516.402344 590.242188 501.988281 C 570.421875 487.570312 562.613281 459.941406 562.613281 459.941406 C 562.613281 459.941406 575.828125 461.144531 583.9375 460.84375 C 592.34375 460.542969 602.253906 456.640625 602.253906 456.640625 C 602.253906 456.640625 574.925781 453.335938 549.398438 424.804688 C 529.277344 402.28125 530.777344 364.738281 530.777344 364.738281 C 530.777344 364.738281 542.792969 371.945312 549.097656 373.449219 C 555.40625 375.25 567.71875 375.25 567.71875 375.25 C 567.71875 375.25 543.691406 361.136719 533.179688 324.195312 C 522.667969 287.554688 542.792969 250.316406 542.792969 250.316406 C 542.792969 250.316406 578.53125 293.5625 631.386719 321.191406 C 684.242188 348.820312 734.097656 347.921875 734.097656 347.921875 C 734.097656 347.921875 726.890625 325.996094 739.503906 293.5625 C 752.117188 261.128906 780.648438 237.703125 824.195312 234.398438 C 867.742188 230.792969 895.671875 263.832031 895.671875 263.832031 C 895.671875 263.832031 909.1875 261.425781 924.503906 255.722656 C 939.820312 250.316406 955.136719 243.109375 955.136719 243.109375 C 955.136719 243.109375 949.730469 259.625 939.21875 272.539062 C 928.707031 285.453125 916.996094 293.261719 916.996094 293.261719 C 916.996094 293.261719 930.8125 292.359375 944.625 288.457031 C 958.441406 284.550781 965.949219 280.648438 965.949219 280.648438 C 950.03125 307.078125 922.402344 326.898438 922.402344 326.898438 Z M 922.402344 326.898438 " fill-opacity="1" fill-rule="nonzero"/></g></svg>