<svg xmlns="http://www.w3.org/2000/svg" xmlns:xlink="http://www.w3.org/1999/xlink" width="1920" zoomAndPan="magnify" viewBox="0 0 1440 809.999993" height="1080" preserveAspectRatio="xMidYMid meet" version="1.0"><defs><filter x="0%" y="0%" width="100%" height="100%" id="d798bdb1ec"><feColorMatrix values="0 0 0 0 1 0 0 0 0 1 0 0 0 0 1 0 0 0 1 0" color-interpolation-filters="sRGB"/></filter><clipPath id="4633395e27"><path d="M 526.066406 238.921875 L 913.816406 238.921875 L 913.816406 571.171875 L 526.066406 571.171875 Z M 526.066406 238.921875 " clip-rule="nonzero"/></clipPath><mask id="835943027e"><g filter="url(#d798bdb1ec)"><rect x="-144" width="1728" fill="#000000" y="-80.999999" height="971.999992" fill-opacity="0.9"/></g></mask><clipPath id="c072eaeb71"><path d="M 0.078125 0.921875 L 387.816406 0.921875 L 387.816406 333.171875 L 0.078125 333.171875 Z M 0.078125 0.921875 " clip-rule="nonzero"/></clipPath><clipPath id="95b4201535"><rect x="0" width="388" y="0" height="334"/></clipPath></defs><g clip-path="url(#4633395e27)"><g mask="url(#835943027e)"><g transform="matrix(1, 0, 0, 1, 526, 238)"><g clip-path="url(#95b4201535)"><g clip-path="url(#c072eaeb71)"><path fill="#ffffff" d="M 221.582031 0.921875 C 129.78125 0.921875 55.601562 75.285156 55.601562 166.996094 L 0.242188 166.996094 L 72.117188 238.867188 L 73.40625 241.542969 L 147.863281 166.996094 L 92.507812 166.996094 C 92.507812 95.675781 150.355469 37.828125 221.671875 37.828125 C 292.992188 37.828125 350.839844 95.675781 350.839844 166.996094 C 350.839844 238.3125 292.992188 296.164062 221.671875 296.164062 C 185.96875 296.164062 153.769531 281.585938 130.425781 258.242188 L 104.316406 284.351562 C 134.300781 314.429688 175.726562 333.066406 221.582031 333.066406 C 313.382812 333.066406 387.746094 258.703125 387.746094 166.996094 C 387.746094 75.285156 313.382812 0.921875 221.582031 0.921875 Z M 203.222656 93.183594 L 203.222656 185.449219 L 282.199219 232.316406 L 295.484375 209.898438 L 230.898438 171.609375 L 230.898438 93.183594 Z M 203.222656 93.183594 " fill-opacity="1" fill-rule="nonzero"/></g></g></g></g></g></svg>